<?xml version="1.0" encoding="UTF-8"?>
<!DOCTYPE svg PUBLIC "-//W3C//DTD SVG 1.1//EN" "http://www.w3.org/Graphics/SVG/1.1/DTD/svg11.dtd">
<!-- Creator: CorelDRAW X7 -->
<svg xmlns="http://www.w3.org/2000/svg" xml:space="preserve" width="14.2853mm" height="17.8862mm" version="1.1" style="shape-rendering:geometricPrecision; text-rendering:geometricPrecision; image-rendering:optimizeQuality; fill-rule:evenodd; clip-rule:evenodd"
viewBox="0 0 271 339"
 xmlns:xlink="http://www.w3.org/1999/xlink">
 <defs>
  <style type="text/css">
   <![CDATA[
    .fil0 {fill:#606062;fill-rule:nonzero}
   ]]>
  </style>
 </defs>
 <g id="Layer_x0020_1">
  <metadata id="CorelCorpID_0Corel-Layer"/>
  <g id="_1680662228416">
   <path class="fil0" d="M35 261l230 0 6 0 0 6 0 5 0 6 -6 1c-4,0 -9,3 -12,7l0 0c-3,3 -5,8 -5,14 0,5 2,10 5,14l0 0c3,4 8,6 12,7l6 0 0 6 0 5 0 7 -6 0 -230 0c-10,0 -19,-5 -25,-12 -6,-7 -10,-17 -10,-27 0,-11 4,-21 10,-28 6,-7 15,-11 25,-11zm212 13l-212 0c-7,0 -12,3 -16,8 -5,4 -7,11 -7,18 0,7 2,13 7,18 4,5 9,7 16,7l212 0c-1,0 -2,-1 -2,-2l0 0c-5,-6 -8,-14 -8,-23 0,-9 3,-17 8,-23l0 0c0,-1 1,-2 2,-3z"/>
   <path class="fil0" d="M35 0l230 0 6 0 0 7 0 33 0 32 0 195 0 7 -6 0 -230 0c-6,0 -11,2 -15,6 -4,4 -7,9 -8,15l-1 5 -5 0 0 0 -6 0 0 -6 0 -254 0 -7 0 0c2,-8 5,-16 10,-22 6,-7 15,-11 25,-11zm224 13l-224 0c-7,0 -12,3 -16,8 -5,5 -7,11 -7,18l0 0 0 0 0 0 0 1 0 0 0 0 0 0 0 1 0 5 0 0 0 224c0,0 0,0 1,0 6,-6 13,-9 22,-9l224 0 0 -189 0 -32 0 -27z"/>
   <path class="fil0" d="M69 51l132 0 0 13 -132 0 0 -13zm0 32l132 0 0 13 -132 0 0 -13zm0 32l132 0 0 14 -132 0 0 -14z"/>
  </g>
 </g>
</svg>
