<?xml version="1.0" encoding="UTF-8"?>
<!DOCTYPE svg PUBLIC "-//W3C//DTD SVG 1.1//EN" "http://www.w3.org/Graphics/SVG/1.1/DTD/svg11.dtd">
<!-- Creator: CorelDRAW X7 -->
<svg xmlns="http://www.w3.org/2000/svg" xml:space="preserve" width="2.84205in" height="2.84205in" version="1.1" style="shape-rendering:geometricPrecision; text-rendering:geometricPrecision; image-rendering:optimizeQuality; fill-rule:evenodd; clip-rule:evenodd"
viewBox="0 0 670 670"
 xmlns:xlink="http://www.w3.org/1999/xlink">
 <defs>
  <style type="text/css">
   <![CDATA[
    .str0 {stroke:#F5874F;stroke-width:1.6378}
    .fil1 {fill:#FEFEFE}
    .fil0 {fill:#C52F33}
    .fil3 {fill:#FEFEFE;fill-rule:nonzero}
    .fil2 {fill:#C52F33;fill-rule:nonzero}
    .fil4 {fill:#C52F33;fill-rule:nonzero}
   ]]>
  </style>
 </defs>
 <g id="Layer_x0020_1">
  <metadata id="CorelCorpID_0Corel-Layer"/>
  <g id="_1812253350848">
   <circle class="fil0 str0" cx="335" cy="335" r="334"/>
   <g>
    <path class="fil1" d="M474 548c0,18 -7,37 -20,50 -1,1 -2,2 -3,3 -7,3 -14,0 -16,-6 -4,-7 -8,-13 -13,-18 -5,-6 -11,-11 -17,-15 -4,-3 -8,-5 -12,-8 -1,3 -2,5 -4,7 -4,5 -9,8 -14,10 -2,6 -5,12 -10,16 -8,7 -19,9 -29,10l0 0 -1 0 -1 0 0 0c-10,-1 -20,-3 -28,-10 -5,-4 -9,-10 -11,-16 -5,-2 -10,-5 -14,-10 -2,-2 -3,-4 -4,-7 -4,3 -8,5 -12,8 -6,4 -12,9 -17,15 -5,5 -9,11 -12,18 -3,6 -10,9 -16,6 -2,-1 -3,-2 -4,-3 -12,-13 -19,-32 -20,-50 -3,1 -6,2 -9,3 -7,3 -13,7 -19,12 -1,0 -2,1 -3,1 -6,3 -13,1 -16,-5l-1 -1c-6,-13 -8,-28 -5,-42 1,-5 3,-10 5,-14 0,0 -1,0 -2,0 -8,2 -17,6 -23,11l-1 1 -1 1c0,0 -1,0 -1,0 -6,3 -13,0 -16,-7 -10,-26 -6,-59 12,-80 -4,-1 -7,-1 -11,-1 -11,0 -20,2 -30,7 -6,2 -13,0 -16,-7 -1,-2 -2,-5 -1,-8 6,-18 13,-35 24,-50 5,-5 10,-10 16,-14 -4,-1 -8,-1 -12,0 -8,0 -16,2 -24,4 -6,2 -13,-1 -15,-7 -1,-3 -1,-6 0,-8 5,-14 11,-28 22,-39 9,-10 20,-17 32,-22 -2,-2 -5,-4 -7,-7 -8,-6 -17,-10 -27,-13 -6,-1 -10,-8 -9,-14 1,-3 3,-6 5,-7 15,-11 31,-21 49,-25 2,-1 4,-1 6,-1 -8,-3 -16,-4 -24,-5 -7,-1 -12,-7 -11,-13 0,-3 2,-6 4,-8 15,-14 36,-24 57,-27 11,-1 23,-1 34,3 5,-4 11,-8 17,-10 -1,-6 -3,-12 -6,-18 -4,-8 -12,-15 -18,-22 -5,-5 -5,-12 0,-17 2,-2 5,-3 8,-3 18,-2 36,-1 54,5 7,2 13,5 20,10 0,-12 -1,-26 -7,-32 -4,-5 -4,-12 0,-17 3,-2 6,-4 9,-3 17,0 35,6 50,14 2,-3 4,-5 6,-8 5,-6 11,-11 16,-16l1 0c0,0 1,-1 1,-1l0 0 1 0 0 -1 0 0 1 0 0 0 0 0 0 0 0 0 1 0 0 0 0 0 1 0 0 0 0 -1 1 0 0 0 0 0 1 0 0 0 0 0 1 0 0 0 0 0 1 0 0 1 1 0 0 0 0 0 1 0 0 0 0 0 0 0 0 0 0 0 0 0 1 0 0 0 1 1 0 0 0 0c1,0 1,1 2,1l0 0c6,5 11,10 16,16 2,3 4,5 6,8 15,-8 33,-14 50,-14 3,-1 6,1 9,3 5,5 5,12 0,17 -6,6 -7,20 -6,32 6,-5 12,-8 20,-10 17,-6 36,-7 54,-5 3,0 5,1 7,3 5,5 5,12 0,17 -6,7 -14,14 -18,22 -3,6 -5,12 -6,18 7,2 12,6 17,10 11,-4 23,-4 35,-3 20,3 41,13 57,27 2,2 3,5 3,8 1,6 -4,12 -11,13 -8,1 -16,2 -24,5 2,0 4,0 6,1 18,4 34,14 49,25 2,1 4,4 5,7 1,6 -3,13 -9,14 -10,3 -19,7 -26,13 -3,3 -6,5 -8,7 12,5 23,12 32,22 11,11 17,25 22,39 1,2 1,5 0,8 -2,6 -9,9 -15,7 -8,-2 -16,-4 -24,-4 -4,-1 -8,-1 -12,0 6,4 11,9 16,14 12,15 19,32 24,50 1,3 1,6 -1,8 -2,7 -10,9 -16,7 -10,-5 -19,-7 -30,-7 -4,0 -7,0 -11,1 19,21 23,54 12,80 -2,7 -9,10 -16,7 0,0 0,0 -1,0l-1 -1 0 -1c-7,-5 -16,-9 -24,-11 -1,0 -1,0 -2,0 2,4 4,9 5,14 3,13 1,28 -4,40l0 0 -2 3c-3,6 -10,8 -16,5 -1,0 -2,-1 -2,-1 -6,-5 -13,-9 -20,-12 -3,-1 -6,-2 -9,-3z"/>
    <g>
     <path class="fil2" d="M335 238c10,0 19,4 24,10 13,0 23,7 23,14l0 0c0,8 -10,14 -23,14 -5,6 -14,10 -24,10 -10,0 -18,-4 -24,-9 -13,-1 -23,-7 -23,-15l0 0c0,-7 10,-13 23,-14 5,-6 14,-10 24,-10z"/>
     <path class="fil2" d="M283 385c7,2 12,4 18,7 -7,3 -13,5 -18,9 -4,3 -8,7 -12,11 -3,3 -6,5 -10,5 -5,0 -10,-4 -12,-11 -10,-1 -13,-6 -12,-12 1,-4 5,-9 11,-12 12,-4 24,0 35,3zm-149 38c-4,-2 -9,-3 -15,-4 -4,-1 -9,-1 -14,-1 -11,0 -22,2 -34,8 -1,0 -3,0 -4,-2 0,-1 0,-2 0,-3 3,-12 10,-31 22,-46 9,-11 20,-19 36,-23 -5,-2 -10,-4 -16,-5 -8,-1 -15,-2 -24,-1 -8,1 -16,2 -25,5 -2,1 -4,0 -4,-2 -1,-1 -1,-2 0,-2 4,-13 10,-25 19,-36 9,-10 22,-18 41,-23 -4,-6 -10,-13 -17,-18 -8,-7 -18,-12 -30,-15 -1,-1 -2,-2 -2,-4 0,-1 1,-2 1,-2 11,-8 27,-19 46,-24 20,-4 42,-2 62,17 2,1 2,3 1,5 -2,1 -3,1 -4,-1 -19,-17 -40,-20 -58,-15 -15,3 -29,12 -38,20 18,6 36,16 44,30 1,-3 2,-6 4,-9 8,-19 36,-30 56,-20 6,2 11,4 15,9 3,2 6,5 7,8 0,0 0,0 1,0 6,-2 12,-3 18,-3 4,0 7,0 11,1 -3,-7 -5,-14 -5,-22 -1,-11 1,-22 6,-36 1,-1 2,-2 3,-2 16,-2 28,-1 37,2 7,2 13,6 18,10 2,-9 6,-17 12,-25 6,-10 15,-19 26,-27 2,-2 8,-2 10,0 11,8 20,17 27,27 5,8 9,16 11,25 5,-4 11,-8 18,-10 10,-3 22,-4 37,-2 2,0 3,1 3,2 5,14 7,25 7,36 -1,8 -2,15 -5,22 3,-1 6,-1 10,-1 6,0 12,1 19,3 1,1 2,2 2,3l0 0c0,1 0,1 0,2 2,12 -2,26 -9,40 2,-1 5,-1 7,-1 4,0 7,1 10,2 3,1 5,4 7,6 2,3 4,6 4,10 0,3 0,6 -2,10 -1,3 -3,6 -6,8 -1,0 -2,1 -3,2 1,2 2,4 3,6 0,2 0,3 0,5 0,3 -1,5 -3,8 -1,2 -3,4 -4,5 2,6 1,11 -1,15 -2,3 -4,5 -6,7 -2,2 -5,3 -8,3 -2,1 -4,1 -5,1 0,0 0,0 0,0 -1,5 -3,9 -7,12 -2,3 -6,5 -10,6 0,1 -1,1 -1,2 -3,6 -8,11 -13,14 -6,3 -13,4 -20,2 -1,0 -3,-1 -4,-1l2 -6c7,4 14,4 20,1 6,-3 10,-9 11,-17 12,-2 17,-9 17,-16l0 0 0 0c-1,-6 -5,-12 -12,-17 -9,-7 -23,-10 -39,-6 -4,1 -7,2 -11,3 -1,0 -1,0 -2,0 -1,0 -1,0 -1,0 -7,6 -16,12 -26,15 -7,3 -14,3 -21,1l0 0 -2 0 0 0c-7,2 -14,2 -21,-1 -7,-2 -13,-6 -19,-9 -8,-6 -5,-3 -20,-9 -1,0 -1,0 -2,0 -15,-4 -28,-1 -38,6 -6,5 -11,11 -11,17l0 0 0 0c-1,7 4,14 17,16 0,8 5,14 11,17 6,3 13,3 20,-1l2 6c-2,0 -3,1 -5,1 -6,2 -13,1 -19,-2 -6,-3 -11,-8 -13,-14 -1,-1 -1,-1 -1,-2 -4,-1 -8,-3 -11,-6 -3,-3 -5,-7 -6,-12 0,0 0,0 0,0 -2,0 -4,0 -6,-1 9,21 -4,39 -20,43 -8,1 -16,0 -23,-6 -4,-3 -7,-9 -7,-15 0,-3 0,-5 1,-8 1,-3 2,-5 4,-7 3,-4 9,-7 14,-7 5,0 10,3 10,10 0,5 -4,9 -10,9 -5,0 -9,-4 -9,-9 0,0 0,-1 0,-1 -4,2 -5,7 -5,12 0,5 3,9 6,12 4,3 8,4 14,3 8,-1 15,-5 19,-10 5,-8 6,-18 1,-28 -1,0 -2,-1 -2,-1 -3,-2 -5,-4 -6,-7 -2,-3 -3,-6 -2,-10 0,0 0,0 0,0 -9,-8 -21,-10 -31,-6 -19,7 -26,30 -23,48 1,1 0,3 -1,3l0 0c-25,19 -37,46 -25,75 21,-12 33,-15 49,-16 8,0 18,0 31,-2 9,-1 17,-4 22,-8 2,-6 5,-11 9,-16 6,-6 14,-10 22,-12 7,-1 15,1 22,5 2,9 11,10 15,10 4,6 6,12 7,18 0,7 -1,13 -3,18 -2,5 -6,9 -12,13 -6,3 -13,5 -19,3 -13,-3 -17,-14 -15,-23 2,-6 6,-11 13,-11 5,0 10,5 10,10 0,6 -5,11 -10,11 -2,0 -4,-1 -5,-1 0,10 11,11 21,7 10,-5 15,-15 13,-26 0,-5 -2,-11 -5,-15 -3,-4 -7,-7 -12,-9 0,0 0,-1 0,-1 -6,-3 -13,-3 -19,-2 -7,1 -13,5 -18,10 -5,5 -8,11 -9,18 -1,6 0,14 3,21l0 0c0,1 0,2 -1,3 -21,22 -20,54 -1,78 3,-9 9,-16 15,-22 13,-12 29,-19 45,-28 14,-8 29,-17 39,-31 2,-4 4,-8 6,-12 1,-5 2,-10 2,-16 1,-1 2,-1 3,-1l0 21c-2,4 -4,8 -6,12 -11,15 -28,25 -45,34 -8,5 -17,10 -24,15 -7,5 -13,10 -19,16 -5,6 -10,13 -13,20 -1,2 -3,3 -5,2 0,0 0,-1 -1,-1l0 0c-10,-11 -17,-27 -17,-45 0,-3 0,-7 1,-10 -8,1 -15,3 -22,6 -8,3 -15,7 -22,13 0,0 -1,0 -1,1 -1,0 -3,0 -4,-2l-1 -1 0 0 0 0c-5,-10 -7,-24 -4,-36 2,-10 7,-20 16,-26 -7,0 -15,0 -23,2 -11,2 -21,6 -28,13 0,0 0,0 0,0 -2,1 -4,0 -5,-2 -12,-31 -1,-66 22,-82zm70 -127c-1,4 -3,8 -5,10 -4,7 -12,11 -20,13 -7,2 -16,1 -23,-3 -4,-2 -6,-6 -8,-10 0,0 0,0 0,0 -1,-3 -1,-5 -1,-8 0,-7 5,-13 12,-15 6,-2 13,1 14,9 0,6 -5,10 -10,10 -5,0 -9,-3 -10,-8 -5,15 11,22 25,19 6,-2 12,-5 16,-10 7,-9 8,-22 2,-32 -4,-7 -12,-13 -21,-15 -15,-5 -36,5 -44,19 -3,5 -5,10 -6,15 0,1 -1,2 -2,3 -32,6 -49,20 -59,50 7,-2 14,-3 21,-3 9,-1 17,-1 25,1 15,3 25,11 36,17 7,4 14,7 22,10 5,-2 11,-2 17,-1 3,0 6,1 8,3l1 0c-2,-3 -3,-5 -3,-8 0,-2 0,-3 0,-5 0,-2 1,-4 3,-6 -1,-1 -2,-2 -3,-2 -3,-2 -5,-5 -7,-8 -1,-4 -2,-7 -1,-10 0,-4 1,-7 3,-10 3,-2 5,-5 8,-6 3,-1 6,-2 9,-2 3,0 5,0 8,1 -3,-6 -6,-12 -7,-18zm-44 75c-6,-3 -12,-6 -17,-9 -3,-2 -6,-4 -9,-6 -18,2 -32,11 -41,23 -10,11 -16,27 -18,39 18,-6 45,-9 61,-2 0,-5 1,-10 2,-15 1,-7 4,-13 8,-19 4,-4 9,-8 14,-11zm100 -2c-6,-4 -12,-8 -18,-14 -5,-4 -12,-7 -19,-8 -3,-1 -7,-1 -11,0 -5,1 -9,2 -12,5l0 0 0 0c-4,3 -5,8 -3,13 1,4 4,7 8,9l-1 2c-8,14 8,22 14,18 1,-2 1,-4 2,-6 3,-4 6,-7 11,-10 2,-2 5,-4 9,-5 3,-1 7,-2 11,-3 3,-1 6,-1 9,-1zm-30 -26c-1,-2 -3,-4 -4,-6 -4,-4 -7,-10 -11,-15 -8,-6 -16,-5 -21,-1 -9,7 -8,24 4,25 1,0 1,0 1,0 4,-3 9,-4 14,-5 4,0 8,0 11,0 2,1 4,1 6,2zm9 17c4,2 7,5 10,7 -5,1 -9,1 -13,3 -2,1 -4,2 -6,3 -3,2 -5,3 -8,6 -2,1 -4,2 -7,1 -3,-1 -3,-8 -2,-13 -6,-2 -7,-6 -5,-10 1,-2 5,-5 9,-5 8,-1 16,4 22,8zm-23 -28c1,2 3,4 4,6 -3,-1 -5,-1 -8,-1 -1,0 -2,1 -4,1 -1,1 -4,2 -6,1 -4,-1 -5,-3 -6,-6 -1,-4 3,-9 9,-8 4,0 8,4 11,7zm-9 197c3,-9 7,-18 13,-26 -3,-7 -3,-14 -3,-21 -9,6 -20,8 -31,9 -1,0 -2,0 -3,0 -25,8 -32,35 -22,58 12,-12 35,-20 46,-20zm247 -206c-3,5 -6,10 -10,14 -1,2 -3,4 -4,6 2,-1 4,-1 7,-2 3,0 7,0 10,0 5,1 10,2 14,5 1,0 1,0 1,0 12,-1 14,-18 5,-25 -5,-4 -14,-5 -23,2zm-28 34c-5,4 -10,8 -16,12 3,0 7,0 10,1 4,1 7,2 11,3 3,1 6,3 9,5 5,3 8,6 10,10 1,2 2,4 2,6 6,4 23,-4 15,-18l-1 -2c3,-2 6,-5 8,-9 2,-5 0,-10 -3,-13l0 0 0 0c-3,-3 -8,-4 -12,-5 -4,-1 -8,-1 -11,0 -8,1 -16,5 -22,10l0 0zm-39 28c-6,2 -12,4 -17,7 7,3 12,5 17,9 5,3 9,7 13,11 3,3 6,5 10,5 5,0 10,-4 11,-11 10,-1 14,-6 13,-12 -1,-4 -6,-9 -12,-12 -11,-4 -24,0 -35,3zm45 -25c-4,2 -7,5 -11,7 5,1 10,1 13,3 3,1 5,2 7,3 3,2 5,3 8,6 2,1 4,2 6,1 3,-1 4,-8 2,-13 7,-2 8,-6 6,-10 -1,-2 -5,-5 -9,-5 -9,-1 -16,4 -22,8zm23 -28c-1,2 -3,4 -4,6 3,-1 5,-1 7,-1 2,0 3,1 4,1 2,1 5,2 7,1 3,-1 5,-3 6,-6 0,-4 -4,-9 -9,-8 -5,0 -8,4 -11,7zm-120 -109c7,0 13,2 19,4 5,3 10,6 14,10 8,1 16,4 22,8 2,1 4,3 6,6 7,-15 20,-28 30,-38 -11,-1 -20,0 -28,3 -8,3 -14,7 -20,13l0 0c0,0 -1,1 -2,1 -2,0 -3,-1 -4,-3 -1,-11 -5,-20 -11,-29 -6,-9 -15,-18 -25,-25 0,-1 -1,-1 -1,-1 0,0 0,0 -1,1 -10,7 -18,16 -25,25 -6,9 -10,18 -11,29 0,2 -2,3 -4,3 -1,0 -2,-1 -2,-1l0 0c-5,-6 -12,-10 -20,-13 -8,-3 -17,-4 -28,-3 10,10 23,23 30,38 2,-2 4,-4 6,-6 6,-4 14,-6 22,-7 4,-5 9,-8 14,-11 6,-2 12,-4 19,-4zm61 79c4,-3 9,-4 14,-5l2 0 1 2c2,6 2,12 2,18 0,2 0,3 0,5 12,-16 27,-32 43,-48 -3,0 -7,-1 -10,-1 -6,0 -10,1 -15,2 -10,11 -21,14 -26,14 17,-9 28,-25 29,-44 0,-9 -2,-19 -5,-30 -10,10 -22,24 -28,38 -6,13 -6,34 -7,49zm-5 -24c0,1 -1,1 -1,1 -6,4 -13,7 -21,8l-3 40c2,-2 4,-4 6,-6l2 -30c4,0 7,-1 11,-4l-2 23c2,-1 3,-3 5,-4l0 0 3 -28zm-30 15c-2,2 -4,3 -7,4 -4,2 -8,3 -13,4 2,1 4,3 6,4 3,0 5,-1 8,-3l0 16 0 0c0,1 1,3 2,4l2 8 2 -37zm-32 8c-4,-1 -9,-2 -13,-4 -2,-1 -5,-2 -7,-4l2 37c1,-3 2,-5 3,-8 0,-1 1,-3 2,-5l-1 -15c3,2 6,3 9,3l0 0c1,-1 3,-3 5,-4zm-27 -14c-9,-1 -16,-3 -21,-7 -1,-1 -1,-1 -2,-1l3 27 0 0c2,1 4,3 6,4l-3 -23c4,3 8,4 11,4l3 30c2,2 3,4 5,7l-2 -41zm-34 -32c-5,-14 -18,-30 -28,-40 -4,11 -6,21 -5,30 0,19 11,35 29,44 -6,0 -16,-3 -27,-14 -5,-1 -9,-2 -15,-2 -3,0 -7,1 -10,1 16,16 32,32 43,48 0,-2 0,-3 0,-5 0,-6 0,-12 2,-18l1 -2 2 0c5,1 10,2 15,5l0 -2 -3 -20c-1,-9 -1,-17 -4,-25zm83 -21c-5,-3 -10,-4 -16,-4 -6,0 -11,1 -16,4 -5,2 -9,5 -12,9l-1 2 -2 0c-8,0 -15,2 -20,6 -4,3 -7,7 -7,11l0 0c0,5 3,9 8,12 4,3 11,6 19,6l2 0 1 1c3,4 7,8 12,10 5,2 10,3 16,3 6,0 11,-1 16,-3 5,-2 9,-6 13,-10l1 -1 1 0c8,-1 15,-3 20,-6 4,-4 7,-8 7,-12l0 0c0,-4 -3,-8 -7,-11 -5,-4 -12,-6 -20,-7l-2 0 -1 -1c-3,-4 -7,-7 -12,-9zm-72 136c-4,-5 -8,-9 -11,-14 -4,-6 -7,-12 -9,-18 -13,-25 -32,-46 -51,-59 0,16 9,36 23,54 14,17 31,31 48,37zm132 -32c-2,6 -5,12 -9,18 -3,5 -6,9 -10,14 16,-6 34,-20 47,-37 14,-18 23,-38 24,-54 -19,13 -39,34 -52,59zm-85 52c-2,-2 -3,-3 -4,-5 -4,-5 -6,-10 -9,-17 -1,-3 -2,-6 -2,-9 -1,-4 -1,-7 -1,-11 0,0 0,-1 0,-2 -7,-17 -26,-39 -48,-43 -5,18 2,38 13,55 11,14 25,25 40,30 4,1 7,2 11,2zm9 -3c13,-5 20,-23 20,-41 0,-17 -7,-35 -20,-40 -13,5 -19,22 -20,39 0,18 7,37 20,42z"/>
     <path class="fil3" d="M335 248c11,0 20,6 20,14 0,8 -9,14 -20,14 -11,0 -19,-6 -19,-14 0,-8 8,-14 19,-14z"/>
     <path class="fil2" d="M341 260c-1,-1 -4,-2 -6,-2 -2,0 -4,1 -6,2 -1,0 -2,1 -2,2 0,1 1,2 2,3 2,1 4,1 6,1 2,0 5,0 6,-1 1,-1 2,-2 2,-3 0,-1 -1,-2 -2,-2zm-6 -8c4,0 7,1 9,3 3,2 5,4 5,7 0,3 -2,6 -5,8 -2,1 -5,2 -9,2 -3,0 -7,-1 -9,-2 -3,-2 -4,-5 -4,-8 0,-3 1,-5 4,-7 2,-2 6,-3 9,-3z"/>
     <path class="fil3" d="M408 304c4,15 0,32 -9,47 -12,23 -34,41 -55,39 2,-1 3,-3 5,-5 3,-4 5,-10 8,-16 1,-3 2,-7 3,-10 0,-3 0,-7 1,-11 0,0 0,-1 0,-1 7,-18 26,-40 47,-43z"/>
     <path class="fil4" d="M363 457l2 -1c19,9 30,2 32,-10 2,-10 -2,-24 -15,-34 -5,-5 -13,-10 -22,-12 -8,-2 -17,-4 -25,-5 -8,1 -16,3 -24,5 -7,2 -13,5 -19,8 -12,8 -19,21 -20,31 -1,15 9,27 34,17 17,21 41,20 57,1zm-11 15c-6,3 -11,4 -17,4 -5,0 -11,-1 -16,-4 -5,-2 -10,-5 -14,-9 -7,2 -13,3 -18,2 -4,0 -8,-2 -11,-4 -3,-3 -6,-6 -7,-10 -1,-4 -2,-8 -1,-13 0,-8 3,-14 6,-20 4,-6 9,-11 15,-15 6,-3 13,-6 20,-9 9,-2 18,-4 26,-5l1 0c8,1 17,3 25,5 8,3 14,6 21,9 6,4 11,9 15,15 3,6 5,12 6,20 1,5 0,9 -1,13 -2,4 -4,7 -7,10 -3,2 -7,4 -12,4 -5,1 -10,0 -17,-2 -4,4 -9,7 -14,9z"/>
     <path class="fil0" d="M335 449c11,-1 17,-4 22,-12 4,1 8,2 12,2 8,1 13,-1 15,-5 5,-12 -13,-24 -22,-27 -9,-5 -19,-7 -27,-8 -7,1 -17,3 -27,8 -9,3 -26,15 -21,27 2,4 6,6 14,5 4,0 9,-1 13,-2 4,8 11,11 21,12z"/>
     <path class="fil2" d="M298 218c1,1 1,5 -1,6 -1,1 -3,1 -4,0 -7,-7 -14,-14 -19,-22 -6,-9 -10,-19 -13,-30 -2,-10 -2,-21 -2,-32 -15,-27 -52,-34 -74,-30 8,7 14,14 18,21 4,8 6,16 8,29 11,-2 23,1 32,6 6,5 12,11 15,18 4,7 5,15 4,25 0,2 -1,3 -3,3 -2,0 -3,-2 -3,-4 0,-8 -1,-15 -4,-21 -6,-16 -20,-22 -34,-22 -13,1 -26,7 -35,18l0 0c-1,1 -3,1 -4,1 -25,-13 -55,-6 -76,12 8,2 16,3 23,6 9,3 17,8 25,14 7,6 14,13 20,20 10,12 24,26 46,32 2,0 -2,1 -3,3 0,1 -2,2 -4,2 -20,-7 -32,-20 -44,-33 -6,-7 -12,-14 -19,-19 -7,-6 -15,-10 -23,-13 -9,-3 -19,-5 -29,-6 -2,0 -3,-2 -3,-4 0,0 0,-1 1,-2l0 0c13,-12 33,-22 52,-24 12,-2 25,-1 35,5 7,-8 16,-13 24,-15 -1,-13 -3,-21 -7,-28 -4,-8 -10,-15 -20,-24 -1,-1 -1,-3 0,-5 1,0 1,-1 2,-1 19,-1 36,0 51,5 12,4 22,11 30,20l0 -2c2,-22 4,-43 -8,-54 -1,-1 -1,-3 1,-5 0,0 1,-1 2,-1 16,1 36,7 53,17 3,-4 6,-9 10,-13 4,-5 9,-10 15,-15l0 0 0 0c0,0 0,0 1,0l0 0 0 0 0 0 0 0 0 0 0 -1 0 0 0 0 0 0 0 0 0 0 0 0 0 0 0 0 0 0 0 0 0 0 0 0 0 0 0 0 0 0 0 0 0 0 1 0 0 0 0 0 0 0 0 0 0 0 0 0 0 0 0 0 0 0 0 0 0 0 0 0 0 0 0 0 0 0 0 0 0 0 0 0 0 0 0 0 1 0 0 0 0 0 0 0 0 0 0 0 0 0 0 0 0 0 0 0 0 0 0 0 0 0 0 0 0 0 0 0 0 0 0 0 0 0 0 0 0 0 1 1 0 0 0 0 0 0 0 0 0 0c0,0 0,0 0,0l0 0 0 0c6,5 11,10 16,15 3,4 7,9 10,13 16,-10 36,-16 52,-17 1,0 2,1 3,1 1,2 1,4 0,5 -11,11 -10,32 -8,54 1,15 3,31 -1,45 -2,11 -7,21 -13,30 -5,8 -11,15 -18,22 -2,1 -4,1 -5,0 -1,-1 -2,-5 -1,-6 7,-7 14,-12 19,-20 5,-8 11,-18 14,-28 6,-29 -14,-67 3,-95 -16,1 -43,10 -58,28 -10,12 -15,27 -8,40 6,11 22,17 33,10 6,-3 8,-10 5,-15 -1,4 -5,7 -9,7 -6,0 -9,-4 -9,-9 0,-4 3,-9 10,-9 10,0 16,8 15,17 0,2 0,4 -1,6 0,0 0,0 0,0 0,0 0,1 0,1 -3,5 -7,9 -13,11 -6,2 -13,1 -21,-2 0,0 0,0 0,0 -1,0 -1,0 -2,-1 -7,-3 -11,-7 -14,-12 0,-1 -1,-2 -1,-3 0,1 -1,2 -1,3 -3,5 -7,9 -14,12 -1,1 -1,1 -2,1 0,0 0,0 0,0 -8,3 -15,4 -21,2 -6,-2 -10,-6 -12,-11 -1,0 -1,-1 -1,-1 0,0 0,0 0,0 -1,-2 -1,-4 -1,-6 -1,-9 6,-17 15,-17 7,0 10,5 10,9 0,5 -3,9 -9,9 -4,0 -8,-3 -8,-7 -4,5 -1,12 5,15 10,7 27,1 32,-10 8,-13 2,-28 -8,-40 -15,-18 -41,-27 -58,-28 17,28 -3,66 4,95 2,10 8,20 13,28 6,8 12,13 19,20zm-76 -14c0,5 -4,9 -9,9 -5,0 -9,-4 -9,-9 0,0 0,-1 0,-1 -11,6 -6,20 3,27 6,4 15,5 22,2 2,0 3,0 4,2 1,2 0,4 -2,4 -5,2 -10,2 -15,2 -5,-1 -10,-3 -14,-6 -5,-4 -8,-8 -9,-12 -2,-5 -2,-10 0,-15 1,-1 1,-2 2,-4 3,-3 6,-6 9,-8 3,-1 7,-2 11,-1 4,1 7,5 7,10zm91 -116c0,0 1,1 1,1 10,7 17,16 21,26 4,-10 12,-19 21,-26 1,0 1,-1 1,-1 -3,-4 -6,-9 -9,-13 -4,-4 -8,-8 -13,-12 -5,4 -9,8 -12,12 -4,4 -7,9 -10,13z"/>
     <path class="fil2" d="M464 398c0,-1 -1,-2 -3,-2 -1,-1 -1,0 -2,2 -11,22 2,41 19,45 8,1 17,0 23,-6 4,-3 7,-9 7,-15 0,-3 0,-5 -1,-8 0,-3 -2,-5 -3,-7 -3,-4 -10,-7 -15,-7 -5,0 -10,3 -10,10 0,5 5,9 10,9 5,0 9,-4 9,-9 0,0 0,-1 0,-1 4,2 6,7 5,12 0,5 -2,9 -6,12 -3,3 -8,4 -13,3 -9,-1 -16,-5 -20,-10 -5,-8 -6,-18 0,-28zm-138 107c-8,7 -17,15 -25,23 -2,13 5,20 19,20 -1,11 4,18 15,19 11,-1 16,-8 15,-19 13,0 20,-6 19,-18 4,3 8,5 12,7 0,0 0,1 0,1 1,12 -4,19 -17,20 -2,0 -3,1 -3,3 -1,16 -12,20 -26,20 -14,0 -25,-4 -26,-20 0,-2 -1,-3 -3,-3 -13,-1 -17,-8 -17,-20 0,-2 -2,-4 -4,-3 -2,0 -3,1 -3,3 1,7 2,13 6,18 3,4 8,7 15,8 1,7 4,12 8,16 6,5 13,7 24,8l0 0 0 0c11,-1 19,-3 24,-8 5,-4 7,-9 8,-16 7,-1 12,-4 15,-8 3,-4 5,-9 6,-15 8,5 15,9 22,14 7,5 13,10 19,16 5,6 10,13 13,20 1,2 3,3 5,2 0,0 0,-1 1,-1l0 0c10,-11 17,-27 17,-45 0,-3 0,-7 0,-10 7,1 14,3 21,6 8,3 16,7 22,13 1,0 1,0 1,1 2,0 4,0 4,-2l1 -1 0 0 0 0c5,-10 7,-24 4,-36 -2,-10 -7,-20 -16,-26 7,0 15,0 23,2 11,2 21,6 28,13 0,0 1,0 1,0 1,1 3,0 4,-2 12,-31 1,-66 -22,-82 4,-2 10,-3 15,-4 5,-1 9,-1 14,-1 11,0 22,2 34,8 2,0 4,0 4,-2 1,-1 1,-2 0,-3 -3,-12 -10,-31 -22,-46 -8,-11 -20,-19 -35,-23 4,-2 10,-4 16,-5 7,-1 15,-2 23,-1 8,1 17,2 26,5 1,1 3,0 4,-2 0,-1 0,-2 0,-2 -5,-13 -10,-25 -20,-36 -9,-10 -22,-18 -41,-23 4,-6 10,-13 17,-18 8,-7 18,-12 30,-15 1,-1 3,-2 2,-4 0,-1 -1,-2 -1,-2 -11,-8 -27,-19 -46,-24 -13,-3 -27,-3 -40,3 2,-3 5,-5 8,-7 6,-6 14,-10 23,-13 8,-3 18,-5 29,-6 1,0 3,-2 3,-4 -1,0 -1,-1 -1,-2l0 0c-14,-12 -34,-22 -53,-24 -12,-2 -24,-1 -34,5 -8,-8 -16,-13 -25,-15 1,-13 3,-21 7,-28 4,-8 11,-15 20,-24 1,-1 1,-3 0,-5 -1,0 -1,-1 -2,-1 -19,-1 -36,0 -51,5 -14,5 -26,13 -34,25 -1,1 -1,3 1,4 1,1 3,4 4,3 15,-28 52,-35 74,-31 -7,7 -14,14 -17,21 -5,8 -7,16 -9,29 -11,-2 -22,1 -31,6 -7,5 -13,11 -16,18 -3,7 -5,15 -4,25 0,2 2,3 3,3 2,0 4,-2 3,-4 0,-8 1,-15 4,-21 7,-16 20,-22 34,-22 13,1 26,7 35,18l0 0c1,1 3,1 4,1 25,-13 56,-6 77,12 -9,2 -17,3 -24,6 -9,3 -17,8 -24,14 -8,6 -14,13 -21,20 -9,12 -24,26 -46,32 -2,0 2,1 3,3 0,1 2,2 4,2 2,-1 5,-2 7,-3 -1,2 -1,5 -1,7 -1,6 -1,11 0,16 1,5 2,10 5,13 4,7 12,11 20,13 8,2 16,1 23,-3 4,-2 7,-6 8,-10 0,0 0,0 0,0 1,-3 2,-5 1,-8 0,-7 -4,-13 -11,-15 -7,-2 -14,1 -14,9 0,6 4,10 10,10 5,0 8,-3 9,-8 5,15 -10,22 -24,19 -7,-2 -13,-5 -17,-10 -7,-9 -8,-22 -2,-32 4,-7 12,-13 21,-15 16,-5 37,5 45,19 2,5 4,10 5,15 0,1 1,2 2,3 33,6 50,20 59,50 -7,-2 -14,-3 -20,-3 -9,-1 -18,-1 -26,1 -15,3 -25,11 -36,17 -7,4 -14,7 -22,10 -5,-2 -10,-2 -16,-1 -4,0 -6,1 -9,3 0,0 -1,0 -1,0 -1,0 -2,0 -3,0 -2,1 -6,4 -6,5 0,1 1,2 1,3 0,0 1,1 1,2 1,1 3,1 5,0 8,-8 20,-10 31,-6 18,7 25,30 22,48 0,1 0,3 1,3l0 0c25,19 37,46 25,75 -21,-12 -33,-15 -48,-16 -9,0 -19,0 -32,-2 -9,-1 -17,-4 -22,-8 -2,-6 -5,-11 -9,-16 -6,-6 -14,-10 -22,-12 -7,-1 -14,1 -22,5 -1,9 -11,10 -15,10 -4,6 -6,12 -6,18 -1,7 0,13 2,18 2,5 7,9 12,13 6,3 13,5 20,3 12,-3 16,-14 14,-23 -1,-6 -6,-11 -12,-11 -6,0 -10,5 -10,10 0,6 4,11 10,11 1,0 3,-1 4,-1 0,10 -11,11 -21,7 -10,-5 -14,-15 -13,-26 1,-5 2,-11 6,-15 2,-4 6,-7 11,-9 0,0 0,-1 0,-1 6,-3 13,-3 19,-2 7,1 13,5 18,10 5,5 8,11 9,18 1,6 1,14 -2,21l0 0c-1,1 -1,2 0,3 21,22 20,54 2,78 -4,-9 -10,-16 -16,-22 -13,-12 -29,-19 -45,-28 -14,-8 -29,-17 -38,-31 -3,-4 -5,-8 -7,-12 -1,-5 -2,-10 -2,-16 0,-1 -1,-1 -3,-1l0 9 -9 23zm169 -256c2,-1 3,-3 5,-5 18,-15 38,-17 55,-13 15,3 29,12 38,20 -17,6 -36,16 -44,30 -1,-3 -2,-6 -4,-9 -7,-17 -30,-28 -50,-23zm-47 -45c0,5 4,9 9,9 5,0 10,-4 10,-9 0,0 0,-1 0,-1 11,6 6,20 -4,27 -6,4 -15,5 -22,2 -1,0 -3,0 -4,2 0,2 1,4 2,4 5,2 10,2 15,2 5,-1 10,-3 14,-6 5,-4 8,-8 10,-12 1,-5 1,-10 -1,-15 0,-1 -1,-2 -2,-4 -2,-3 -5,-6 -9,-8 -3,-1 -7,-2 -11,-1 -4,1 -7,5 -7,10zm62 167c6,-3 12,-6 17,-9 3,-2 6,-4 9,-6 18,2 32,11 41,23 10,11 16,27 18,39 -17,-6 -45,-9 -61,-2 0,-5 0,-10 -1,-15 -2,-7 -5,-13 -9,-19 -4,-4 -8,-8 -14,-11zm-47 158c-2,-9 -6,-18 -13,-26 3,-7 4,-14 3,-21 9,6 20,8 32,9 1,0 2,0 3,0 24,8 31,35 21,58 -12,-12 -35,-20 -46,-20z"/>
    </g>
   </g>
  </g>
 </g>
</svg>
