<?xml version="1.0" encoding="UTF-8"?>
<!DOCTYPE svg PUBLIC "-//W3C//DTD SVG 1.1//EN" "http://www.w3.org/Graphics/SVG/1.1/DTD/svg11.dtd">
<!-- Creator: CorelDRAW X7 -->
<svg xmlns="http://www.w3.org/2000/svg" xml:space="preserve" width="2.84205in" height="2.84205in" version="1.1" style="shape-rendering:geometricPrecision; text-rendering:geometricPrecision; image-rendering:optimizeQuality; fill-rule:evenodd; clip-rule:evenodd"
viewBox="0 0 471 471"
 xmlns:xlink="http://www.w3.org/1999/xlink">
 <defs>
  <style type="text/css">
   <![CDATA[
    .str0 {stroke:#F5874F;stroke-width:1.15123}
    .fil1 {fill:#FEFEFE}
    .fil0 {fill:#C52F33}
    .fil3 {fill:#FEFEFE;fill-rule:nonzero}
    .fil2 {fill:#C52F33;fill-rule:nonzero}
    .fil4 {fill:#C52F33;fill-rule:nonzero}
   ]]>
  </style>
 </defs>
 <g id="Layer_x0020_1">
  <metadata id="CorelCorpID_0Corel-Layer"/>
  <g id="_1814366496784">
   <circle class="fil0 str0" cx="236" cy="236" r="235"/>
   <g>
    <path class="fil1" d="M333 385c0,13 -5,26 -14,35 0,1 -1,2 -2,2 -5,2 -10,1 -12,-4 -2,-4 -5,-9 -8,-12 -4,-4 -8,-8 -12,-11 -3,-2 -6,-4 -9,-5 0,1 -1,3 -2,4 -3,4 -7,6 -11,8 -1,4 -3,7 -7,10 -5,5 -13,7 -20,8l0 0 0 0 -1 0 0 0c-7,-1 -15,-3 -20,-8 -4,-3 -6,-6 -7,-10 -4,-2 -8,-4 -10,-8 -2,-1 -3,-3 -3,-4 -3,1 -6,3 -9,5 -4,3 -8,7 -12,11 -3,3 -6,8 -8,12 -2,5 -7,6 -12,4 -1,0 -1,-1 -2,-2 -9,-9 -14,-22 -14,-35 -2,1 -4,2 -6,2 -5,2 -10,5 -14,9 -1,0 -1,0 -2,1 -4,2 -9,0 -11,-4l-1 -1c-4,-9 -5,-20 -3,-29 1,-4 2,-7 3,-10 0,0 -1,0 -1,0 -6,1 -12,4 -17,8l0 0 -1 1c0,0 0,0 -1,0 -4,2 -9,0 -11,-5 -7,-18 -4,-41 9,-56 -3,-1 -5,-1 -8,-1 -8,0 -14,2 -21,5 -5,2 -10,0 -12,-5 -1,-1 -1,-4 0,-6 4,-12 9,-24 17,-34 3,-4 7,-8 11,-11 -3,0 -6,0 -9,0 -5,1 -11,2 -16,4 -5,1 -9,-1 -11,-6 0,-2 0,-4 0,-5 4,-10 8,-20 15,-28 7,-7 15,-11 23,-15 -2,-2 -3,-3 -5,-5 -6,-4 -12,-7 -19,-9 -4,-1 -7,-6 -6,-10 1,-2 2,-4 4,-5 10,-8 21,-15 34,-18 1,0 3,0 4,0 -5,-2 -11,-3 -17,-4 -5,0 -8,-4 -8,-9 0,-2 1,-4 3,-6 11,-9 25,-17 40,-18 8,-1 16,-1 24,2 4,-3 8,-6 12,-8 -1,-4 -2,-8 -4,-12 -3,-6 -8,-11 -13,-15 -3,-4 -3,-9 0,-12 2,-2 3,-3 5,-3 13,-1 26,0 39,4 5,2 9,4 14,7 0,-9 -1,-18 -5,-22 -3,-4 -3,-9 0,-12 2,-2 4,-3 7,-3 11,1 24,5 34,10 2,-2 3,-3 5,-5 3,-4 7,-8 11,-11l0 -1c1,0 1,0 1,0l1 0 0 -1 0 0 0 0 1 0 0 0 0 0 0 0 0 0 0 0 0 0 1 0 0 0 0 0 0 0 1 0 0 0 0 0 0 0 0 0 1 0 0 0 0 0 0 0 1 0 0 0 0 0 0 0 1 0 0 0 0 0 0 0 0 0 0 0 1 0 0 0 0 0 0 0 0 1 1 0 0 0c0,0 0,0 1,0l0 1c4,3 8,7 12,11 1,2 2,3 4,5 10,-5 23,-9 35,-10 2,0 4,1 6,3 3,3 3,8 0,12 -4,4 -5,13 -4,22 4,-3 9,-5 14,-7 12,-4 25,-5 38,-4 2,0 3,1 5,3 3,3 3,8 0,12 -4,4 -10,9 -13,15 -2,4 -3,8 -4,12 5,2 9,5 12,8 8,-3 16,-3 24,-2 15,1 30,9 40,18 2,2 3,4 3,6 0,5 -3,9 -8,9 -6,1 -11,2 -17,4 1,0 3,0 4,0 13,3 24,10 35,18 1,1 3,3 3,5 1,4 -2,9 -6,10 -7,2 -13,5 -19,9 -2,2 -3,3 -5,5 9,4 16,8 23,15 7,8 11,18 15,28 0,1 0,3 0,5 -1,5 -6,7 -11,6 -5,-2 -11,-3 -16,-4 -3,0 -6,0 -9,0 4,3 8,7 11,11 9,10 13,22 17,34 1,2 1,5 0,6 -2,5 -7,7 -11,5 -7,-3 -14,-5 -22,-5 -2,0 -5,0 -7,1 12,15 15,38 8,56 -2,5 -7,7 -11,5 0,0 -1,0 -1,0l0 -1 -1 0c-5,-4 -11,-7 -17,-8 0,0 -1,0 -1,0 1,3 3,6 3,10 2,9 1,19 -3,28l0 0 -1 2c-2,4 -7,6 -11,4 -1,-1 -1,-1 -2,-1 -4,-4 -9,-7 -14,-9 -2,0 -4,-1 -6,-2z"/>
    <g>
     <path class="fil2" d="M236 167c6,0 13,3 16,7 10,0 17,5 17,10l0 0c0,6 -7,10 -17,10 -3,5 -9,7 -16,7 -7,0 -13,-2 -17,-7 -9,0 -17,-4 -17,-10l0 0c0,-5 8,-9 17,-10 3,-4 10,-7 17,-7z"/>
     <path class="fil2" d="M199 271c5,1 9,3 12,4 -4,2 -8,4 -12,7 -3,2 -6,5 -9,8 -2,2 -4,3 -7,3 -3,0 -7,-2 -8,-7 -7,-1 -9,-5 -8,-9 0,-3 3,-6 8,-8 8,-3 16,-1 24,2zm-104 26c-4,-1 -7,-2 -11,-2 -4,-1 -7,-1 -10,-1 -8,0 -16,1 -24,5 -1,1 -2,0 -3,-1 0,-1 0,-1 0,-2 2,-9 7,-22 16,-32 6,-8 14,-14 25,-17 -4,-1 -7,-2 -12,-3 -5,-1 -10,-1 -16,-1 -6,1 -12,2 -18,4 -1,0 -3,-1 -3,-2 0,0 0,-1 0,-1 3,-9 7,-18 14,-25 6,-7 15,-13 29,-17 -3,-4 -7,-8 -12,-12 -6,-5 -13,-9 -21,-11 -1,0 -2,-1 -2,-3 0,0 1,-1 1,-1 7,-5 19,-13 32,-17 14,-3 29,-1 44,12 1,1 1,2 0,3 -1,1 -2,1 -3,0 -13,-12 -28,-14 -40,-11 -11,2 -20,9 -27,15 12,4 26,10 31,21 1,-3 2,-5 3,-7 6,-13 25,-21 40,-14 4,1 7,3 10,6 2,2 4,4 5,6 0,0 0,0 0,0 5,-1 9,-2 13,-2 3,0 5,0 7,0 -2,-4 -3,-9 -3,-15 0,-7 1,-16 5,-25 0,-1 1,-1 2,-2 11,-1 19,0 26,2 5,2 9,4 12,7 2,-6 5,-12 8,-18 5,-7 11,-13 19,-19 2,-1 6,-1 7,0 8,6 14,12 19,19 4,6 6,12 8,18 3,-3 7,-5 12,-7 7,-2 16,-3 26,-2 1,1 2,1 2,2 4,9 5,18 5,25 0,6 -1,11 -3,15 2,0 4,0 7,0 4,0 8,1 13,2 1,0 2,1 2,2l0 0c0,1 0,1 0,2 1,8 -2,18 -7,28 2,-1 4,-1 5,-1 3,0 5,0 7,1 2,1 4,3 5,5 2,2 3,4 3,6 0,3 0,5 -1,7 -1,3 -3,5 -5,6 0,1 -1,1 -2,1 1,2 2,3 2,5 0,1 0,2 0,3 0,2 -1,4 -2,6 -1,1 -2,3 -3,4 2,4 1,7 0,10 -1,2 -3,4 -4,5 -2,1 -4,2 -6,2 -1,1 -3,1 -4,1 0,0 0,0 0,0 0,3 -2,6 -4,8 -2,2 -5,4 -8,4 0,1 0,2 0,2 -2,4 -6,8 -10,10 -4,2 -9,2 -13,1 -1,0 -2,0 -3,-1l1 -4c5,3 10,3 14,1 4,-2 7,-6 8,-12 9,-2 12,-6 12,-11l0 0 0 0c-1,-4 -4,-9 -8,-12 -7,-5 -17,-7 -28,-4 -2,1 -5,1 -8,2 0,0 -1,0 -1,0 -1,0 -1,0 -1,0 -5,4 -11,8 -18,11 -5,1 -10,2 -15,0l0 0 -1 0 0 0c-5,2 -10,1 -15,0 -5,-2 -9,-5 -13,-7 -6,-4 -4,-2 -15,-6 0,0 0,0 -1,-1 -10,-2 -20,0 -26,5 -5,3 -8,8 -8,12l0 0 0 0c-1,5 3,9 11,11 1,6 4,10 9,12 3,2 8,2 13,-1l2 4c-1,1 -2,1 -3,1 -5,1 -10,1 -14,-1 -4,-2 -8,-6 -9,-10 -1,0 -1,-1 -1,-2 -3,0 -5,-2 -7,-4 -3,-2 -4,-5 -5,-8 0,0 0,0 0,0 -1,0 -2,0 -4,-1 6,15 -3,27 -14,30 -5,1 -12,0 -16,-4 -3,-2 -5,-6 -5,-10 0,-2 0,-4 1,-6 0,-2 1,-4 2,-5 2,-3 7,-5 10,-5 4,0 7,2 7,7 0,4 -3,7 -6,7 -4,0 -7,-3 -7,-7 0,0 0,0 0,0 -3,1 -4,5 -4,8 1,4 2,6 5,8 2,2 6,3 9,3 6,-1 11,-4 14,-8 4,-5 4,-12 0,-19 0,0 -1,-1 -1,-1 -2,-1 -3,-3 -4,-5 -1,-2 -2,-4 -2,-7 0,0 0,0 0,0 -6,-6 -14,-7 -22,-4 -13,5 -17,21 -15,34 0,1 0,1 -1,2l0 0c-18,13 -26,32 -18,52 15,-8 24,-10 34,-11 7,0 13,0 23,-1 6,-1 12,-3 15,-6 1,-4 4,-8 7,-11 4,-4 9,-7 15,-8 5,-1 10,0 15,3 1,6 8,7 11,7 2,4 4,8 4,13 1,5 0,9 -1,12 -2,4 -5,7 -9,9 -4,3 -9,4 -14,3 -8,-3 -11,-10 -10,-16 1,-5 4,-8 9,-8 4,0 7,3 7,7 0,4 -3,7 -7,7 -1,0 -2,0 -3,-1 0,8 8,9 15,6 7,-4 10,-11 9,-19 0,-3 -2,-7 -4,-10 -2,-3 -5,-5 -8,-7 0,0 0,0 0,0 -5,-2 -9,-3 -14,-2 -4,1 -9,4 -12,7 -3,4 -6,8 -7,13 0,5 0,10 2,15l0 0c1,0 0,1 0,2 -15,15 -14,38 -1,55 3,-7 6,-12 11,-16 9,-8 20,-13 32,-19 9,-6 20,-13 27,-22 1,-3 3,-6 4,-9 1,-3 2,-7 2,-10 0,-2 1,-2 2,-2l0 15c-2,3 -3,6 -5,9 -8,10 -20,17 -31,24 -6,3 -12,6 -17,10 -5,3 -9,7 -13,11 -4,5 -7,9 -10,15 0,1 -2,1 -3,1 0,0 0,-1 -1,-1l0 0c-7,-8 -12,-19 -12,-31 0,-3 0,-5 1,-8 -6,1 -11,3 -16,5 -5,2 -10,5 -15,9 0,0 -1,0 -1,0 -1,1 -2,0 -3,-1l0 0 0 0 0 0c-4,-8 -5,-17 -3,-26 1,-7 5,-14 11,-18 -5,0 -10,0 -16,1 -8,1 -15,5 -20,9 0,0 0,0 0,0 -1,1 -3,0 -3,-1 -9,-22 -1,-47 16,-58zm48 -89c-1,3 -2,5 -3,7 -3,5 -8,8 -14,9 -5,1 -11,1 -16,-2 -3,-1 -5,-4 -6,-7 0,0 0,0 0,0 -1,-2 -1,-4 -1,-5 0,-5 4,-10 8,-11 5,-2 10,0 10,6 0,4 -3,7 -7,7 -3,0 -6,-2 -6,-5 -4,10 7,15 17,13 5,-1 9,-3 12,-7 4,-6 5,-15 1,-22 -3,-5 -8,-9 -15,-11 -11,-4 -26,3 -31,13 -2,3 -3,7 -4,11 0,1 -1,2 -2,2 -22,4 -34,14 -41,35 5,-1 10,-2 14,-2 7,-1 13,0 18,1 11,2 18,7 25,11 6,3 10,6 16,7 4,-1 8,-1 12,0 2,0 4,1 6,2l0 0c-1,-2 -2,-4 -2,-6 0,-1 0,-2 0,-3 0,-2 1,-3 2,-5 -1,0 -1,0 -2,-1 -2,-1 -4,-3 -5,-6 0,-2 -1,-4 -1,-7 1,-2 1,-4 3,-6 2,-2 3,-4 5,-5 2,-1 5,-1 7,-1 2,0 3,0 5,0 -2,-4 -4,-8 -5,-12zm-31 53c-4,-2 -8,-5 -11,-7 -3,-1 -5,-2 -7,-3 -13,1 -22,7 -29,15 -7,8 -11,19 -12,28 12,-4 32,-7 43,-2 0,-3 0,-7 1,-10 1,-5 3,-9 6,-13 2,-4 6,-6 9,-8zm71 -2c-4,-2 -9,-6 -13,-9 -4,-3 -8,-5 -13,-6 -3,-1 -5,-1 -8,0 -3,0 -6,1 -8,3l0 1 -1 0c-2,2 -3,5 -2,9 1,2 4,5 6,6l-1 1c-5,10 6,16 10,13 1,-1 1,-3 2,-4 1,-3 4,-5 7,-8 2,-1 4,-2 6,-3 3,-1 6,-1 8,-2 2,0 5,-1 7,-1zm-21 -18c-1,-1 -2,-3 -3,-4 -3,-3 -5,-7 -8,-10 -6,-5 -11,-4 -15,-1 -6,5 -5,17 3,17 1,0 1,0 1,0 3,-2 6,-3 10,-3 3,0 5,0 7,0 2,0 3,1 5,1zm6 12c3,2 5,3 7,5 -3,1 -6,1 -9,2 -2,1 -3,1 -5,2 -1,1 -3,3 -5,4 -1,1 -3,2 -5,1 -2,-1 -2,-6 -1,-9 -4,-2 -5,-5 -4,-7 1,-2 3,-3 7,-4 5,0 10,3 15,6zm-17 -19c2,1 3,2 4,4 -2,-1 -4,-1 -6,-1 -1,0 -2,0 -3,1 -1,0 -3,1 -4,0 -3,-1 -4,-2 -4,-4 -1,-3 2,-6 6,-6 3,1 5,3 7,6zm-5 138c1,-7 4,-13 9,-19 -2,-5 -3,-9 -2,-14 -7,4 -14,5 -22,6 -1,0 -2,0 -3,0 -17,6 -22,24 -15,41 8,-8 25,-14 33,-14zm173 -145c-2,3 -4,7 -7,10 -1,2 -2,3 -3,4 2,0 3,-1 5,-1 2,0 5,0 7,0 4,0 7,1 10,3 1,0 1,0 1,0 8,0 9,-12 3,-17 -3,-3 -9,-4 -16,1zm-19 24c-4,3 -8,6 -12,8 3,0 5,1 7,1 3,1 5,1 8,2 2,1 4,2 6,3 4,3 6,5 7,8 1,1 2,3 2,4 4,3 16,-3 10,-13l-1 -1c3,-1 5,-4 6,-6 2,-4 0,-7 -2,-9l0 0 0 -1c-2,-2 -5,-3 -8,-3 -3,-1 -6,-1 -8,0 -6,1 -11,4 -15,7l0 0zm-28 20c-4,1 -8,3 -12,4 5,2 9,4 12,7 4,2 6,5 9,8 2,2 4,3 7,3 4,0 7,-2 8,-7 7,-1 10,-5 9,-9 -1,-3 -4,-6 -8,-8 -8,-3 -17,-1 -25,2zm31 -18c-2,2 -5,3 -7,5 4,1 7,1 9,2 2,1 4,1 5,2 2,1 3,3 5,4 2,1 3,2 5,1 2,-1 2,-6 1,-9 5,-2 6,-5 4,-7 -1,-2 -3,-3 -6,-4 -6,0 -11,3 -16,6zm17 -19c-1,1 -2,2 -3,4 2,-1 3,-1 5,-1 1,0 2,0 3,1 1,0 3,1 4,0 3,-1 4,-2 5,-4 0,-3 -3,-6 -6,-6 -4,1 -6,3 -8,6zm-84 -77c4,0 9,1 13,3 4,1 7,4 10,7 6,0 11,2 15,5 2,1 3,3 4,4 6,-10 15,-19 22,-26 -8,-1 -15,0 -20,2 -6,2 -10,5 -14,9l0 0c0,0 -1,1 -1,1 -2,0 -3,-1 -3,-2 -1,-8 -4,-15 -8,-21 -5,-6 -11,-12 -18,-18 0,0 0,0 0,0 -1,0 -1,0 -1,0 -7,6 -13,12 -17,18 -5,6 -7,13 -9,21 0,1 -1,2 -2,2 -1,0 -2,-1 -2,-1l0 0c-4,-4 -8,-7 -14,-9 -5,-2 -11,-3 -20,-2 8,7 17,16 22,26 1,-1 2,-3 4,-4 4,-2 9,-4 15,-5 3,-3 6,-5 10,-7 4,-2 9,-3 14,-3zm42 55c3,-2 7,-3 10,-3l2 0 0 1c2,5 2,9 2,13 0,1 0,2 0,3 8,-11 19,-22 30,-33 -2,-1 -5,-1 -7,-1 -4,0 -7,1 -10,1 -8,8 -16,10 -19,10 12,-6 20,-17 20,-31 0,-6 -1,-13 -3,-21 -7,7 -15,17 -19,27 -5,9 -5,24 -6,34zm-3 -16c0,0 -1,0 -1,0 -4,3 -9,5 -15,6l-2 28c2,-1 3,-3 4,-4l2 -21c2,-1 5,-1 8,-3l-2 16c1,-1 2,-2 4,-3l0 0 2 -19zm-21 10c-2,1 -3,2 -5,3 -3,1 -6,2 -9,3 1,0 2,1 4,3 2,-1 4,-1 6,-3l-1 11 0 0c1,1 1,2 2,3l1 6 2 -26zm-23 6c-3,-1 -6,-2 -9,-3 -1,-1 -3,-2 -5,-3l2 26c0,-2 1,-4 1,-6 1,-1 1,-2 2,-3l-1 -11c3,2 5,2 7,3l0 0c1,-2 2,-3 3,-3zm-19 -10c-6,-1 -11,-3 -15,-5 0,-1 0,-1 -1,-1l2 19 0 0c2,1 3,2 4,3l-2 -16c3,2 6,2 8,3l2 21c1,1 3,3 4,4l-2 -28zm-24 -23c-3,-10 -13,-21 -20,-28 -2,8 -3,15 -3,21 0,14 8,25 20,31 -3,0 -11,-2 -18,-10 -4,0 -7,-1 -11,-1 -2,0 -5,0 -7,1 12,11 22,22 31,33 -1,-1 -1,-2 -1,-3 0,-4 0,-8 2,-13l0 -1 2 0c3,0 7,1 10,3l0 -1 -2 -15c-1,-6 -1,-11 -3,-17zm59 -15c-4,-1 -7,-2 -11,-2 -5,0 -8,1 -12,2 -3,2 -6,4 -8,7l-1 1 -1 0c-6,0 -11,2 -14,4 -3,3 -5,5 -5,8l0 0c0,3 2,6 5,9 3,2 8,4 14,4l1 0 1 1c2,3 5,5 8,6 4,2 8,3 12,3 4,0 7,-1 11,-3 3,-1 6,-4 9,-6l0 -1 1 0c6,-1 11,-2 14,-5 3,-2 5,-5 5,-8l0 0c0,-3 -2,-6 -5,-8 -3,-2 -8,-4 -14,-4l-1 0 -1 -1c-2,-3 -5,-5 -8,-7zm-51 96c-3,-3 -5,-6 -8,-10 -2,-4 -5,-8 -6,-13 -9,-17 -23,-32 -36,-41 0,11 7,26 17,38 9,12 21,22 33,26zm93 -23c-1,5 -3,9 -6,13 -2,4 -5,7 -8,10 12,-4 24,-14 34,-26 9,-12 16,-27 16,-38 -13,9 -27,24 -36,41zm-60 37c-1,-1 -2,-2 -3,-4 -2,-3 -4,-6 -6,-11 -1,-2 -1,-4 -2,-7 0,-2 0,-5 0,-7 0,-1 0,-1 0,-1 -5,-12 -19,-28 -34,-31 -3,13 1,27 10,39 7,9 17,17 27,21 3,0 6,1 8,1zm7 -2c9,-3 13,-16 13,-29 0,-12 -4,-24 -13,-28 -10,3 -14,15 -14,27 -1,13 4,27 14,30z"/>
     <path class="fil3" d="M236 174c7,0 13,5 13,10 0,6 -6,10 -13,10 -8,0 -14,-4 -14,-10 0,-5 6,-10 14,-10z"/>
     <path class="fil2" d="M240 183c-1,-1 -3,-2 -4,-2 -2,0 -4,1 -5,2 0,0 -1,1 -1,1 0,1 1,2 1,2 1,1 3,1 5,1 1,0 3,0 4,-1 0,0 1,-1 1,-2 0,0 -1,-1 -1,-1zm-4 -6c2,0 4,1 6,2 2,1 3,3 3,5 0,2 -1,4 -3,5 -2,2 -4,2 -6,2 -3,0 -5,0 -7,-2 -2,-1 -3,-3 -3,-5 0,-2 1,-4 3,-5 2,-1 4,-2 7,-2z"/>
     <path class="fil3" d="M287 213c2,11 -1,23 -6,34 -9,16 -24,28 -39,27 1,-1 2,-2 3,-3 2,-3 4,-7 6,-12 1,-2 1,-4 2,-7 0,-2 0,-4 0,-7 0,0 0,-1 0,-1 6,-13 19,-28 34,-31z"/>
     <path class="fil4" d="M255 322l1 -1c14,6 22,1 23,-7 2,-8 -2,-17 -10,-25 -4,-3 -10,-6 -16,-8 -6,-2 -12,-3 -17,-3 -6,0 -12,1 -17,3 -5,2 -10,4 -14,6 -8,5 -13,14 -14,22 0,10 7,18 24,12 12,14 29,13 40,1zm-8 10c-4,2 -8,3 -11,3 -4,0 -8,-1 -12,-3 -3,-2 -7,-4 -10,-7 -4,2 -9,2 -12,2 -3,0 -6,-1 -8,-3 -2,-2 -4,-4 -5,-7 -1,-3 -1,-6 -1,-9 1,-6 2,-10 5,-14 2,-4 6,-8 10,-10 4,-3 9,-5 14,-7 6,-2 13,-3 18,-3l1 0c6,0 12,1 18,3 5,2 10,4 14,7 4,2 8,6 11,10 2,4 4,8 4,14 1,3 0,6 -1,9 -1,3 -2,5 -4,7 -3,2 -5,3 -9,3 -3,0 -7,0 -12,-2 -3,3 -6,5 -10,7z"/>
     <path class="fil0" d="M236 315c7,0 12,-2 15,-8 3,1 6,2 9,2 5,0 9,-1 10,-4 3,-8 -9,-16 -15,-19 -7,-3 -14,-5 -19,-5 -5,0 -13,2 -19,5 -6,3 -19,11 -15,19 1,3 4,4 10,4 3,0 6,-1 9,-2 3,6 7,8 15,8z"/>
     <path class="fil2" d="M209 153c1,1 1,3 0,4 -1,1 -2,1 -3,0 -5,-5 -10,-9 -14,-15 -4,-6 -7,-13 -9,-21 -1,-7 -1,-15 -1,-22 -10,-20 -37,-25 -52,-22 5,6 10,10 12,15 3,5 5,12 6,21 8,-2 16,0 23,4 4,3 8,7 11,12 2,5 3,11 2,18 0,1 -1,2 -2,2 -1,0 -2,-1 -2,-3 0,-5 -1,-10 -3,-15 -4,-11 -14,-15 -24,-15 -9,0 -18,5 -24,13l0 0c-1,0 -2,1 -3,0 -18,-9 -39,-4 -54,9 6,1 11,2 16,4 7,2 13,6 18,10 5,4 10,9 14,14 7,8 17,18 33,22 1,1 -2,1 -2,2 -1,1 -2,2 -3,2 -15,-5 -23,-14 -31,-23 -4,-5 -9,-10 -14,-14 -5,-4 -10,-7 -16,-9 -6,-2 -13,-3 -21,-4 -1,0 -2,-1 -2,-3 0,0 1,-1 1,-1l0 0c10,-9 23,-16 37,-17 9,-1 17,0 24,3 5,-5 12,-9 18,-10 -1,-9 -3,-15 -6,-20 -2,-5 -7,-10 -13,-17 -1,-1 -1,-2 0,-3 0,0 0,-1 1,-1 13,-1 25,0 36,4 8,3 15,7 21,14l0 -2c1,-15 2,-30 -6,-38 0,-1 0,-2 1,-3 0,0 1,-1 1,-1 12,1 26,5 37,12 2,-3 5,-6 7,-9 3,-4 7,-7 11,-11l0 0 0 0c0,0 0,0 0,0l0 0 1 0 0 0 0 0 0 0 0 0 0 0 0 0 0 0 0 0 0 0 0 0 0 0 0 0 0 0 0 0 0 0 0 0 0 0 0 0 0 0 0 0 0 0 0 0 0 0 0 0 0 0 0 0 0 0 0 0 0 0 0 0 0 0 1 0 0 0 0 0 0 0 0 0 0 0 0 0 0 0 0 0 0 0 0 0 0 0 0 0 0 0 0 0 0 0 0 0 0 0 0 0 0 0 0 0 0 0 0 0 0 0 0 0 0 0 0 0 0 0 0 0 0 0 0 0 0 0 1 0 0 0 0 0 0 0 0 0 0 0c0,0 0,0 0,0l0 0 0 0c4,4 8,7 11,11 3,3 5,6 7,9 11,-7 25,-11 37,-12 0,0 1,1 2,1 1,1 1,2 0,3 -8,8 -7,23 -6,38 1,11 2,22 0,32 -2,8 -5,15 -9,21 -4,6 -9,10 -14,15 -1,1 -2,1 -3,0 -1,-1 -1,-3 0,-4 5,-5 9,-8 13,-14 4,-5 8,-12 9,-20 5,-20 -9,-47 3,-67 -12,1 -30,8 -41,20 -7,9 -11,19 -6,29 4,7 16,11 23,7 5,-3 6,-8 4,-11 -1,3 -3,5 -6,5 -5,0 -7,-3 -7,-6 0,-3 3,-7 7,-7 7,0 12,6 11,12 0,2 0,3 -1,4 0,0 0,1 0,1 0,0 0,0 0,0 -2,3 -5,6 -9,8 -4,1 -9,1 -15,-2 0,0 0,0 0,0 0,0 0,0 -1,0 -5,-2 -8,-5 -10,-9 0,0 0,-1 0,-1 -1,0 -1,1 -1,1 -2,4 -5,7 -10,9 -1,0 -1,0 -1,0 0,0 0,0 0,0 -6,3 -11,3 -15,2 -4,-2 -7,-5 -9,-8 0,0 0,0 0,0 0,0 0,-1 0,-1 -1,-1 -1,-2 -1,-4 -1,-6 4,-12 11,-12 4,0 7,4 7,7 0,3 -2,6 -7,6 -3,0 -5,-2 -6,-5 -2,3 0,8 4,11 7,4 19,0 23,-7 5,-10 1,-20 -6,-29 -11,-12 -29,-19 -41,-20 12,20 -2,47 3,67 1,8 6,15 9,20 4,6 9,9 13,14zm-53 -10c0,4 -3,7 -6,7 -4,0 -7,-3 -7,-7 0,0 0,0 0,0 -8,4 -4,14 3,19 4,3 10,3 15,1 1,0 2,0 3,2 0,1 0,2 -2,2 -3,2 -7,2 -10,1 -4,0 -7,-1 -10,-3 -3,-3 -6,-6 -7,-9 -1,-4 -1,-7 1,-10 0,-1 1,-2 1,-3 2,-3 4,-5 6,-6 3,-1 6,-1 8,-1 3,1 5,4 5,7zm64 -81c0,0 1,0 1,0 6,5 12,12 15,19 2,-7 8,-14 14,-19 1,0 1,0 1,0 -2,-3 -4,-6 -7,-9 -2,-3 -5,-6 -8,-9 -4,3 -7,6 -9,9 -3,3 -5,6 -7,9z"/>
     <path class="fil2" d="M326 280c0,-1 -1,-1 -2,-2 -1,0 -1,0 -1,2 -8,15 1,28 13,31 6,1 12,0 16,-4 3,-2 5,-6 5,-10 0,-2 0,-4 0,-6 -1,-2 -2,-4 -3,-5 -2,-3 -6,-5 -10,-5 -4,0 -7,2 -7,7 0,4 3,7 7,7 3,0 6,-3 6,-7 0,0 0,0 0,0 3,1 4,5 4,8 -1,4 -2,6 -5,8 -2,2 -5,3 -9,3 -6,-1 -11,-4 -14,-8 -3,-5 -4,-12 0,-19zm-97 75c-6,5 -12,11 -17,16 -1,9 3,14 13,14 -1,8 3,13 11,13 7,0 11,-5 10,-13 9,0 14,-4 14,-12 2,1 5,3 8,5 0,0 0,0 0,0 0,9 -3,13 -12,14 -1,0 -2,1 -2,2 -1,11 -8,14 -18,15 -10,-1 -18,-4 -18,-15 -1,-1 -1,-2 -3,-2 -9,-1 -12,-5 -12,-14 0,-1 -1,-2 -2,-2 -2,0 -3,1 -3,2 1,5 2,9 4,13 3,2 6,5 11,6 1,4 2,8 6,11 4,3 9,5 16,5l1 0 0 0c7,0 13,-2 16,-5 4,-3 6,-7 6,-11 5,-1 8,-4 11,-6 2,-3 3,-7 4,-11 5,3 11,7 15,10 5,3 10,7 13,11 4,5 8,9 10,15 1,1 2,1 3,1 0,0 1,-1 1,-1l0 0c7,-8 12,-19 12,-31 0,-3 0,-5 0,-8 5,1 10,3 15,5 5,2 11,5 15,9 1,0 1,0 1,0 1,1 2,0 3,-1l0 0 0 0 0 0c4,-8 5,-17 3,-26 -1,-7 -5,-14 -11,-18 5,0 11,0 16,1 8,1 15,5 20,9 0,0 0,0 0,0 1,1 3,0 3,-1 9,-22 1,-47 -15,-58 3,-1 6,-2 10,-2 4,-1 7,-1 10,-1 8,0 16,1 24,5 1,1 3,0 3,-1 0,-1 0,-1 0,-2 -2,-9 -7,-22 -16,-32 -6,-8 -14,-14 -24,-17 3,-1 7,-2 11,-3 5,-1 10,-1 16,-1 6,1 12,2 18,4 1,0 3,-1 3,-2 0,0 0,-1 0,-1 -3,-9 -7,-18 -14,-25 -6,-7 -15,-13 -29,-17 3,-4 7,-8 12,-12 6,-5 13,-9 21,-11 1,0 2,-1 2,-3 0,0 -1,-1 -1,-1 -7,-5 -19,-13 -32,-17 -9,-2 -19,-2 -29,2 2,-2 4,-3 6,-5 5,-4 10,-7 16,-9 6,-2 13,-3 21,-4 1,0 2,-1 2,-3 0,0 -1,-1 -1,-1l0 0c-10,-9 -23,-16 -37,-17 -8,-1 -17,0 -24,3 -5,-5 -11,-9 -18,-10 1,-9 3,-15 6,-20 3,-5 7,-10 14,-17 0,-1 0,-2 0,-3 -1,0 -1,-1 -2,-1 -13,-1 -25,0 -35,4 -11,3 -19,9 -25,17 0,1 0,3 1,3 1,1 2,3 3,2 10,-20 37,-25 52,-22 -5,6 -10,10 -12,15 -3,5 -5,12 -6,21 -8,-2 -16,0 -22,4 -5,3 -9,7 -11,12 -3,5 -4,11 -3,18 0,1 1,2 2,2 1,0 2,-1 2,-3 0,-5 1,-10 3,-15 4,-11 14,-15 24,-15 9,0 18,5 25,13l0 0c0,0 1,1 2,0 18,-9 39,-4 54,9 -6,1 -11,2 -16,4 -7,2 -13,6 -18,10 -5,4 -10,9 -14,14 -7,8 -17,18 -33,22 -1,1 2,1 2,2 1,1 2,2 3,2 2,-1 4,-1 5,-2 0,1 -1,3 0,5 -1,4 -1,7 0,11 0,3 1,7 3,9 3,5 8,8 14,9 6,1 11,1 16,-2 3,-1 5,-4 6,-7 0,0 0,0 0,0 1,-2 1,-4 1,-5 0,-5 -3,-10 -8,-11 -5,-2 -10,0 -10,6 0,4 3,7 7,7 3,0 6,-2 7,-5 3,10 -8,15 -18,13 -5,-1 -9,-3 -11,-7 -5,-6 -6,-15 -2,-22 3,-5 9,-9 15,-11 11,-4 26,3 31,13 2,3 3,7 4,11 0,1 1,2 2,2 22,4 34,14 41,35 -5,-1 -10,-2 -14,-2 -7,-1 -13,0 -18,1 -11,2 -18,7 -25,11 -5,3 -10,6 -16,7 -4,-1 -7,-1 -12,0 -2,0 -4,1 -6,2 0,0 0,0 -1,0 0,0 -1,0 -2,0 -1,1 -4,3 -4,3 1,1 1,2 1,2 0,1 0,1 1,2 1,1 2,1 3,0 6,-6 14,-7 22,-4 13,5 17,21 15,34 0,1 1,1 1,2l0 0c18,13 26,32 18,52 -15,-8 -23,-10 -34,-11 -6,0 -13,0 -22,-1 -7,-1 -12,-3 -16,-6 -1,-4 -4,-8 -6,-11 -5,-4 -10,-7 -15,-8 -6,-1 -11,0 -16,3 -1,6 -8,7 -11,7 -2,4 -4,8 -4,13 -1,5 0,9 2,12 1,4 4,7 8,9 4,3 9,4 14,3 9,-3 11,-10 10,-16 -1,-5 -4,-8 -9,-8 -4,0 -7,3 -7,7 0,4 3,7 7,7 1,0 2,0 3,-1 0,8 -8,9 -14,6 -7,-4 -11,-11 -10,-19 1,-3 2,-7 4,-10 2,-3 5,-5 8,-7 0,0 0,0 0,0 5,-2 9,-3 14,-2 4,1 9,4 12,7 4,4 6,8 7,13 0,5 0,10 -2,15l0 0c0,0 0,1 0,2 15,15 14,38 1,55 -2,-7 -6,-12 -11,-16 -9,-8 -20,-13 -32,-19 -9,-6 -20,-13 -26,-22 -2,-3 -4,-6 -5,-9 -1,-3 -2,-7 -2,-10 0,-2 0,-2 -1,-2l0 7 -7 16zm119 -180c1,-1 2,-2 3,-3 13,-11 27,-13 39,-10 11,2 21,9 27,15 -12,4 -26,10 -31,21 -1,-3 -2,-5 -3,-7 -5,-12 -21,-19 -35,-16zm-33 -32c0,4 3,7 6,7 4,0 7,-3 7,-7 0,0 0,0 0,0 8,4 4,14 -3,19 -4,3 -10,3 -15,1 -1,0 -2,0 -3,2 0,1 1,2 2,2 3,2 7,2 10,1 4,0 7,-1 10,-3 4,-3 6,-6 7,-9 1,-4 1,-7 -1,-10 0,-1 -1,-2 -1,-3 -2,-3 -4,-5 -6,-6 -3,-1 -6,-1 -8,-1 -3,1 -5,4 -5,7zm44 118c4,-2 8,-5 12,-7 2,-1 4,-2 6,-3 13,1 22,7 29,15 7,8 11,19 12,28 -12,-4 -31,-7 -43,-2 0,-3 0,-7 -1,-10 -1,-5 -3,-9 -6,-13 -2,-4 -6,-6 -9,-8zm-34 111c-1,-7 -4,-13 -8,-19 1,-5 2,-9 1,-14 7,4 15,5 23,6 0,0 1,0 2,0 17,6 22,24 15,41 -8,-8 -25,-14 -33,-14z"/>
    </g>
   </g>
  </g>
 </g>
</svg>
