<?xml version="1.0" encoding="UTF-8"?>
<!DOCTYPE svg PUBLIC "-//W3C//DTD SVG 1.1//EN" "http://www.w3.org/Graphics/SVG/1.1/DTD/svg11.dtd">
<!-- Creator: CorelDRAW X7 -->
<svg xmlns="http://www.w3.org/2000/svg" xml:space="preserve" width="19.4816mm" height="19.4817mm" version="1.1" style="shape-rendering:geometricPrecision; text-rendering:geometricPrecision; image-rendering:optimizeQuality; fill-rule:evenodd; clip-rule:evenodd"
viewBox="0 0 1368 1368"
 xmlns:xlink="http://www.w3.org/1999/xlink">
 <defs>
  <style type="text/css">
   <![CDATA[
    .fil0 {fill:#606062;fill-rule:nonzero}
   ]]>
  </style>
 </defs>
 <g id="Layer_x0020_1">
  <metadata id="CorelCorpID_0Corel-Layer"/>
  <path class="fil0" d="M428 1153l512 0 0 47 -512 0 0 -47zm-285 -1153l191 0c227,0 454,0 681,0 11,0 12,-1 22,9l322 322 9 9 0 13 0 872c0,39 -16,75 -42,101 -26,26 -62,42 -101,42l-125 0 -833 0 -124 0c-39,0 -75,-16 -101,-42 -26,-26 -42,-62 -42,-101l0 -1082c0,-39 16,-75 42,-101 26,-26 62,-42 101,-42zm285 820l512 0 0 47 -512 0 0 -47zm459 -759l0 221c0,17 -14,31 -30,31l-92 0c-17,0 -31,-14 -31,-31l0 -221 -338 0 0 295c0,6 2,11 6,14l0 0c3,4 8,6 14,6l536 0c6,0 11,-2 14,-6 4,-3 6,-8 6,-14l0 -295 -85 0zm-91 0l0 190 30 0 0 -190 -30 0zm-368 871l512 0 0 47 -512 0 0 -47zm0 113l512 0 0 47 -512 0 0 -47zm606 -952l0 263c0,22 -10,43 -24,58 -15,14 -36,24 -58,24l-536 0c-22,0 -43,-10 -58,-24l0 0c-14,-15 -24,-36 -24,-58l0 -295 -191 0c-22,0 -43,10 -58,24 -14,15 -24,36 -24,58l0 1082c0,22 10,43 24,58 15,14 36,24 58,24l122 0 0 -568c0,-25 10,-47 27,-64l0 0c16,-16 39,-27 64,-27l656 0c25,0 48,11 64,27l0 0c17,17 27,39 27,64l0 568 122 0c22,0 43,-10 58,-24 14,-15 24,-36 24,-58l0 -859 -273 -273zm8 1214l0 -568c0,-8 -4,-15 -9,-21l0 0c-5,-5 -13,-8 -21,-8l-656 0c-8,0 -16,3 -21,8l0 0c-5,6 -9,13 -9,21l0 568 716 0z"/>
 </g>
</svg>
