<?xml version="1.0" encoding="UTF-8"?>
<!DOCTYPE svg PUBLIC "-//W3C//DTD SVG 1.1//EN" "http://www.w3.org/Graphics/SVG/1.1/DTD/svg11.dtd">
<!-- Creator: CorelDRAW X7 -->
<svg xmlns="http://www.w3.org/2000/svg" xml:space="preserve" width="16.4423mm" height="17.0109mm" version="1.1" style="shape-rendering:geometricPrecision; text-rendering:geometricPrecision; image-rendering:optimizeQuality; fill-rule:evenodd; clip-rule:evenodd"
viewBox="0 0 359 371"
 xmlns:xlink="http://www.w3.org/1999/xlink">
 <defs>
  <style type="text/css">
   <![CDATA[
    .fil0 {fill:#606062;fill-rule:nonzero}
   ]]>
  </style>
 </defs>
 <g id="Layer_x0020_1">
  <metadata id="CorelCorpID_0Corel-Layer"/>
  <g id="_1679349545872">
   <path class="fil0" d="M43 179c0,6 -2,12 -6,16l0 0c-4,3 -9,6 -15,6 -3,0 -5,-1 -8,-1l0 117c0,4 -3,7 -7,7 -4,0 -7,-3 -7,-7l0 -137 0 -1c0,-24 5,-47 14,-68 9,-22 22,-42 39,-58 16,-17 36,-30 58,-39 21,-9 44,-14 68,-14 24,0 48,5 69,14 22,9 42,22 58,39 17,16 30,36 39,58 9,21 14,44 14,68l0 1 0 137c0,4 -4,7 -8,7 -4,0 -7,-3 -7,-7l0 -117c-2,0 -5,1 -7,1 -6,0 -11,-3 -15,-6l0 0 0 0c-4,-4 -7,-10 -7,-16 0,-18 -3,-36 -10,-52 -7,-16 -17,-31 -30,-44 -12,-12 -27,-23 -44,-29 -16,-7 -33,-11 -52,-11 -18,0 -36,4 -52,11 -16,6 -31,17 -44,29 -12,13 -23,28 -29,44 -7,16 -11,34 -11,52zm301 0l0 -1 0 0c0,-22 -4,-43 -12,-62 -9,-20 -21,-38 -36,-53 -15,-16 -34,-28 -54,-36 -19,-8 -40,-13 -63,-13 -22,0 -43,5 -63,13 -20,8 -38,20 -53,36 -16,15 -28,33 -36,53 -8,19 -12,40 -13,62l0 0 0 1c1,2 1,4 3,5l0 0c1,2 3,2 5,2 2,0 3,0 5,-2l0 0c1,-1 2,-3 2,-5 0,-20 4,-39 11,-57 8,-19 19,-35 33,-49 14,-14 30,-25 49,-33 18,-7 37,-11 57,-11 21,0 40,4 58,11 18,8 35,19 49,33 13,14 25,30 32,49 8,18 12,37 12,57 0,2 0,4 2,5l0 0c1,2 3,2 5,2 2,0 4,0 5,-2l0 0c1,-1 2,-3 2,-5z"/>
   <g>
    <path class="fil0" d="M42 219l0 0c3,0 5,0 8,1 1,-3 3,-5 5,-8l0 0c5,-5 12,-8 20,-8l0 0c7,0 14,3 19,8l0 0c5,5 8,12 8,20l0 111c0,8 -3,15 -8,20l0 0c-5,5 -12,8 -19,8l0 0c-8,0 -15,-3 -20,-8 -2,-2 -4,-5 -5,-8 -3,1 -5,2 -8,2l0 0c-5,0 -10,-2 -13,-6l0 0 0 0c-4,-3 -6,-8 -6,-14l0 -99c0,-5 2,-10 6,-14 3,-3 8,-5 13,-5zm20 19l0 99 0 6c0,4 1,7 3,10 3,2 6,3 10,3l0 0c3,0 7,-1 9,-3l0 0c2,-3 4,-6 4,-10l0 -111c0,-4 -2,-7 -4,-9l0 0c-2,-3 -6,-4 -9,-4l0 0c-4,0 -7,1 -10,4l0 0c-2,2 -3,5 -3,9l0 6zm-20 -5l0 0c-1,0 -2,1 -3,1 -1,1 -2,3 -2,4l0 99c0,2 1,3 2,4l0 0c1,1 2,1 3,1l0 0c2,0 3,0 4,-1 1,-1 1,-2 1,-4l0 0 0 -99 0 0c0,-2 0,-3 -1,-4 -1,0 -2,-1 -4,-1z"/>
    <path class="fil0" d="M316 219l0 0c-2,0 -5,0 -7,1 -2,-3 -3,-5 -6,-8l0 0c-5,-5 -12,-8 -19,-8l0 0c-8,0 -15,3 -20,8l0 0c-5,5 -8,12 -8,20l0 111c0,8 3,15 8,20l0 0c5,5 12,8 20,8l0 0c7,0 14,-3 19,-8 3,-2 4,-5 6,-8 2,1 5,2 7,2l0 0c6,0 10,-2 14,-6l0 0 0 0c3,-3 6,-8 6,-14l0 -99c0,-5 -3,-10 -6,-14 -4,-3 -8,-5 -14,-5zm-19 19l0 99 0 6c0,4 -2,7 -4,10 -2,2 -6,3 -9,3l0 0c-4,0 -7,-1 -9,-3l0 0c-3,-3 -4,-6 -4,-10l0 -111c0,-4 1,-7 4,-9l0 0c2,-3 5,-4 9,-4l0 0c3,0 7,1 9,4l0 0c2,2 4,5 4,9l0 6zm19 -5l0 0c2,0 3,1 4,1 1,1 1,3 1,4l0 99c0,2 0,3 -1,4l0 0c-1,1 -2,1 -4,1l0 0c-1,0 -2,0 -3,-1 -1,-1 -2,-2 -2,-4l0 0 0 -99 0 0c0,-2 1,-3 2,-4 1,0 2,-1 3,-1z"/>
   </g>
  </g>
 </g>
</svg>
