<?xml version="1.0" encoding="UTF-8"?>
<!DOCTYPE svg PUBLIC "-//W3C//DTD SVG 1.1//EN" "http://www.w3.org/Graphics/SVG/1.1/DTD/svg11.dtd">
<!-- Creator: CorelDRAW X7 -->
<svg xmlns="http://www.w3.org/2000/svg" xml:space="preserve" width="19.5644mm" height="21.8634mm" version="1.1" style="shape-rendering:geometricPrecision; text-rendering:geometricPrecision; image-rendering:optimizeQuality; fill-rule:evenodd; clip-rule:evenodd"
viewBox="0 0 1521 1700"
 xmlns:xlink="http://www.w3.org/1999/xlink">
 <defs>
  <style type="text/css">
   <![CDATA[
    .fil0 {fill:#606062;fill-rule:nonzero}
   ]]>
  </style>
 </defs>
 <g id="Layer_x0020_1">
  <metadata id="CorelCorpID_0Corel-Layer"/>
  <g id="_1715735670864">
   <path class="fil0" d="M1128 0l2 0 12 0 9 8 361 334 9 8 0 11 0 2 0 28 0 976c0,10 -4,20 -12,26l0 0c-7,7 -17,11 -28,11l-302 0 0 -55 282 0 0 -958 -333 0 -29 0 0 -28 0 -308 -671 0c-3,0 -6,1 -8,3 -2,2 -3,4 -3,7l0 209 -60 0 0 -209c0,-18 8,-34 21,-46 13,-12 30,-19 50,-19l671 0 29 0zm293 336l-263 -243 0 243 263 0z"/>
   <path class="fil0" d="M771 295l2 0 12 0 9 9 361 333 9 9 0 11 0 2 0 27 0 977c0,10 -5,19 -12,26l0 0c-7,7 -17,11 -28,11l-1084 0c-11,0 -21,-4 -28,-11 -7,-7 -12,-16 -12,-26l0 -1303c0,-17 8,-34 21,-45 12,-12 30,-20 49,-20l671 0 30 0zm333 391l-333 0 -30 0 0 -27 0 -308 -671 0c-3,0 -5,1 -7,3 -2,1 -3,4 -3,6l0 1285 1044 0 0 -959zm-40 -55l-263 -243 0 243 263 0z"/>
  </g>
 </g>
</svg>
