<?xml version="1.0" encoding="UTF-8"?>
<!DOCTYPE svg PUBLIC "-//W3C//DTD SVG 1.1//EN" "http://www.w3.org/Graphics/SVG/1.1/DTD/svg11.dtd">
<!-- Creator: CorelDRAW X7 -->
<svg xmlns="http://www.w3.org/2000/svg" xml:space="preserve" width="19.1518mm" height="16.4134mm" version="1.1" style="shape-rendering:geometricPrecision; text-rendering:geometricPrecision; image-rendering:optimizeQuality; fill-rule:evenodd; clip-rule:evenodd"
viewBox="0 0 1440 1234"
 xmlns:xlink="http://www.w3.org/1999/xlink">
 <defs>
  <style type="text/css">
   <![CDATA[
    .fil0 {fill:#606062;fill-rule:nonzero}
   ]]>
  </style>
 </defs>
 <g id="Layer_x0020_1">
  <metadata id="CorelCorpID_0Corel-Layer"/>
  <path class="fil0" d="M908 170l7 0 7 0c2,0 4,0 5,0 139,5 265,63 357,155l0 1c97,96 156,229 156,376 0,147 -59,280 -156,376l0 0c-92,93 -218,151 -357,156 -1,0 -3,0 -5,0l-7 0 -7 0 0 0 -686 0c-19,0 -34,-15 -34,-34 0,-19 15,-34 34,-34l692 0c126,-2 239,-53 322,-136l0 0c84,-84 136,-200 136,-328 0,-128 -52,-244 -136,-328l0 0c-83,-83 -196,-134 -322,-136l-512 0 0 171 -402 -205 402 -204 0 170 506 0 0 0z"/>
 </g>
</svg>
