<?xml version="1.0" encoding="UTF-8"?>
<!DOCTYPE svg PUBLIC "-//W3C//DTD SVG 1.1//EN" "http://www.w3.org/Graphics/SVG/1.1/DTD/svg11.dtd">
<!-- Creator: CorelDRAW X7 -->
<svg xmlns="http://www.w3.org/2000/svg" xml:space="preserve" width="16.0601mm" height="17.9554mm" version="1.1" style="shape-rendering:geometricPrecision; text-rendering:geometricPrecision; image-rendering:optimizeQuality; fill-rule:evenodd; clip-rule:evenodd"
viewBox="0 0 861 962"
 xmlns:xlink="http://www.w3.org/1999/xlink">
 <defs>
  <style type="text/css">
   <![CDATA[
    .fil0 {fill:#727376;fill-rule:nonzero}
   ]]>
  </style>
 </defs>
 <g id="Layer_x0020_1">
  <metadata id="CorelCorpID_0Corel-Layer"/>
  <path class="fil0" d="M826 368c8,-8 21,-8 29,0 8,8 8,21 0,29l-410 410c-8,8 -21,8 -29,0l-410 -410c-8,-8 -8,-21 0,-29 8,-8 21,-8 29,0l375 376 0 -724c0,-11 9,-20 20,-20 12,0 21,9 21,20l0 724 375 -376zm-772 594c-11,0 -20,-9 -20,-20 0,-11 9,-20 20,-20l752 0c12,0 21,9 21,20 0,11 -9,20 -21,20l-752 0z"/>
 </g>
</svg>
