<?xml version="1.0" encoding="UTF-8"?>
<!DOCTYPE svg PUBLIC "-//W3C//DTD SVG 1.1//EN" "http://www.w3.org/Graphics/SVG/1.1/DTD/svg11.dtd">
<!-- Creator: CorelDRAW X7 -->
<svg xmlns="http://www.w3.org/2000/svg" xml:space="preserve" width="16.0983mm" height="16.4019mm" version="1.1" style="shape-rendering:geometricPrecision; text-rendering:geometricPrecision; image-rendering:optimizeQuality; fill-rule:evenodd; clip-rule:evenodd"
viewBox="0 0 1207 1230"
 xmlns:xlink="http://www.w3.org/1999/xlink">
 <defs>
  <style type="text/css">
   <![CDATA[
    .fil0 {fill:#606062;fill-rule:nonzero}
   ]]>
  </style>
 </defs>
 <g id="Layer_x0020_1">
  <metadata id="CorelCorpID_0Corel-Layer"/>
  <path class="fil0" d="M506 0c139,0 266,57 357,148l1 0c91,92 148,218 148,358 0,64 -12,125 -34,182 -19,48 -45,93 -76,133l284 283c14,15 21,34 21,52 0,19 -7,38 -21,52l0 0c-15,15 -34,22 -52,22 -19,0 -38,-7 -52,-22l-288 -287c-37,26 -78,47 -122,63 -52,18 -108,28 -166,28 -140,0 -266,-57 -358,-148l0 -1c-91,-91 -148,-218 -148,-357 0,-140 57,-266 148,-358l0 0c92,-91 218,-148 358,-148zm309 196c-79,-79 -188,-128 -309,-128 -121,0 -230,49 -310,128 -79,80 -128,189 -128,310 0,121 49,230 128,309 80,79 189,128 310,128 51,0 99,-8 144,-24 47,-16 90,-40 128,-70l28 -23 24 -26c36,-39 65,-86 84,-136 19,-49 29,-102 29,-158 0,-121 -49,-230 -128,-310l0 0zm22 656l-17 -10 9 17 1 1 0 1 300 299c1,1 2,2 4,2 1,0 2,-1 3,-2 1,-1 2,-2 2,-4 0,-1 -1,-2 -2,-3l-299 -300c-1,0 -1,0 -1,0 0,0 0,0 0,-1z"/>
 </g>
</svg>
