<?xml version="1.0" encoding="UTF-8"?>
<!DOCTYPE svg PUBLIC "-//W3C//DTD SVG 1.1//EN" "http://www.w3.org/Graphics/SVG/1.1/DTD/svg11.dtd">
<!-- Creator: CorelDRAW X7 -->
<svg xmlns="http://www.w3.org/2000/svg" xml:space="preserve" width="18.0481mm" height="16.4402mm" version="1.1" style="shape-rendering:geometricPrecision; text-rendering:geometricPrecision; image-rendering:optimizeQuality; fill-rule:evenodd; clip-rule:evenodd"
viewBox="0 0 432 393"
 xmlns:xlink="http://www.w3.org/1999/xlink">
 <defs>
  <style type="text/css">
   <![CDATA[
    .fil0 {fill:#606062;fill-rule:nonzero}
    .fil1 {fill:#606062;fill-rule:nonzero}
   ]]>
  </style>
 </defs>
 <g id="Layer_x0020_1">
  <metadata id="CorelCorpID_0Corel-Layer"/>
  <g id="_1715735037840">
   <path class="fil0" d="M71 0l290 0c20,0 37,8 50,21 13,13 21,30 21,50l0 173c0,20 -8,38 -21,50 -13,13 -30,21 -50,21l-65 0 -159 78 55 -78 -121 0c-20,0 -37,-8 -50,-21 -13,-12 -21,-30 -21,-50l0 -173c0,-20 8,-37 21,-50 13,-13 30,-21 50,-21zm290 15l-290 0c-15,0 -29,7 -39,17 -10,10 -17,24 -17,39l0 173c0,16 7,29 17,39 10,11 24,17 39,17l136 0 15 0 -9 12 -33 45 111 -56 3 -1 67 0c15,0 29,-6 39,-17 10,-10 17,-23 17,-39l0 -173c0,-15 -7,-29 -17,-39 -10,-10 -24,-17 -39,-17z"/>
   <path class="fil1" d="M90 109l252 0 0 16 -252 0 0 -16zm0 39l252 0 0 16 -252 0 0 -16zm0 38l252 0 0 17 -252 0 0 -17z"/>
  </g>
 </g>
</svg>
