<?xml version="1.0" encoding="UTF-8"?>
<!DOCTYPE svg PUBLIC "-//W3C//DTD SVG 1.1//EN" "http://www.w3.org/Graphics/SVG/1.1/DTD/svg11.dtd">
<!-- Creator: CorelDRAW X7 -->
<svg xmlns="http://www.w3.org/2000/svg" xml:space="preserve" width="19.5644mm" height="21.8634mm" version="1.1" style="shape-rendering:geometricPrecision; text-rendering:geometricPrecision; image-rendering:optimizeQuality; fill-rule:evenodd; clip-rule:evenodd"
viewBox="0 0 112 125"
 xmlns:xlink="http://www.w3.org/1999/xlink">
 <defs>
  <style type="text/css">
   <![CDATA[
    .fil0 {fill:#606062;fill-rule:nonzero}
   ]]>
  </style>
 </defs>
 <g id="Layer_x0020_1">
  <metadata id="CorelCorpID_0Corel-Layer"/>
  <g id="_2665679089680">
   <path class="fil0" d="M83 0l0 0 1 0 1 1 26 24 1 1 0 1 0 0 0 2 0 72c0,0 0,1 -1,2l0 0c0,0 -1,0 -2,0l-22 0 0 -4 21 0 0 -70 -25 0 -2 0 0 -2 0 -23 -49 0c-1,0 -1,0 -1,0 0,0 0,1 0,1l0 15 -5 0 0 -15c0,-2 1,-3 2,-4 1,0 2,-1 4,-1l49 0 2 0zm22 25l-20 -18 0 18 20 0z"/>
   <path class="fil0" d="M57 22l0 0 1 0 0 0 27 25 1 1 0 0 0 1 0 2 0 72c0,0 -1,1 -1,1l0 0c-1,1 -1,1 -2,1l-80 0c-1,0 -2,0 -2,-1 -1,0 -1,-1 -1,-1l0 -96c0,-2 1,-3 2,-4 0,-1 2,-1 3,-1l50 0 2 0zm24 29l-24 0 -2 0 0 -2 0 -23 -50 0c0,0 0,0 0,0 -1,0 -1,0 -1,1l0 94 77 0 0 -70zm-3 -5l-19 -17 0 17 19 0z"/>
  </g>
 </g>
</svg>
