<?xml version="1.0" encoding="UTF-8"?>
<!DOCTYPE svg PUBLIC "-//W3C//DTD SVG 1.1//EN" "http://www.w3.org/Graphics/SVG/1.1/DTD/svg11.dtd">
<!-- Creator: CorelDRAW X7 -->
<svg xmlns="http://www.w3.org/2000/svg" xml:space="preserve" width="13.8959mm" height="17.8683mm" version="1.1" style="shape-rendering:geometricPrecision; text-rendering:geometricPrecision; image-rendering:optimizeQuality; fill-rule:evenodd; clip-rule:evenodd"
viewBox="0 0 256 329"
 xmlns:xlink="http://www.w3.org/1999/xlink">
 <defs>
  <style type="text/css">
   <![CDATA[
    .fil0 {fill:#606062;fill-rule:nonzero}
    .fil1 {fill:#606062;fill-rule:nonzero}
   ]]>
  </style>
 </defs>
 <g id="Layer_x0020_1">
  <metadata id="CorelCorpID_0Corel-Layer"/>
  <g id="_1679346322304">
   <path class="fil0" d="M170 0l0 0 3 0 2 2 79 78 2 2 0 3 0 0 0 7 0 229c0,2 -1,4 -3,6l0 0c-1,1 -3,2 -6,2l-238 0c-3,0 -5,-1 -6,-2 -2,-2 -3,-4 -3,-6l0 -306c0,-4 2,-8 5,-11 2,-2 6,-4 10,-4l148 0 7 0zm73 92l-73 0 -7 0 0 -7 0 -72 -148 0c0,0 -1,0 -1,1 -1,0 -1,1 -1,1l0 301 230 0 0 -224zm-9 -13l-58 -57 0 57 58 0z"/>
   <path class="fil1" d="M55 205l146 0 0 13 -146 0 0 -13zm0 31l146 0 0 13 -146 0 0 -13zm0 31l146 0 0 13 -146 0 0 -13z"/>
   <path class="fil1" d="M55 114l146 0 0 13 -146 0 0 -13zm0 31l146 0 0 13 -146 0 0 -13zm0 31l146 0 0 13 -146 0 0 -13z"/>
  </g>
 </g>
</svg>
