<?xml version="1.0" encoding="UTF-8"?>
<!DOCTYPE svg PUBLIC "-//W3C//DTD SVG 1.1//EN" "http://www.w3.org/Graphics/SVG/1.1/DTD/svg11.dtd">
<!-- Creator: CorelDRAW X7 -->
<svg xmlns="http://www.w3.org/2000/svg" xml:space="preserve" width="20.2339mm" height="15.9273mm" version="1.1" style="shape-rendering:geometricPrecision; text-rendering:geometricPrecision; image-rendering:optimizeQuality; fill-rule:evenodd; clip-rule:evenodd"
viewBox="0 0 543 427"
 xmlns:xlink="http://www.w3.org/1999/xlink">
 <defs>
  <style type="text/css">
   <![CDATA[
    .fil1 {fill:#FEFEFE;fill-rule:nonzero}
    .fil0 {fill:#606062;fill-rule:nonzero}
   ]]>
  </style>
 </defs>
 <g id="Layer_x0020_1">
  <metadata id="CorelCorpID_0Corel-Layer"/>
  <g id="_1715735652624">
   <path class="fil0" d="M89 236l0 0 0 0 1 0 2 0 48 0 0 0 1 0 0 0 312 0 0 0c9,0 18,2 27,6 8,3 16,9 22,15l0 0c7,6 12,14 16,23l0 0c3,9 5,18 5,28 0,9 -2,18 -5,27l0 0c-4,9 -9,17 -16,23l0 0c-6,7 -14,12 -22,15l0 0c-9,4 -18,6 -27,6l0 0 -328 0c-1,0 -2,0 -2,1l-1 0c0,0 0,1 0,2 0,1 0,1 0,2l1 0c0,1 1,1 2,1l327 0 0 0 1 0 0 0 1 0 0 0 0 0 0 0 0 0 1 0c9,-1 19,-3 28,-7 8,-3 16,-9 23,-16l2 -2c6,-6 12,-14 15,-23l0 0c4,-9 6,-19 6,-29 0,-11 -2,-21 -6,-30l0 0c-4,-9 -10,-18 -17,-25l0 0c-6,-7 -15,-13 -23,-16 -9,-4 -19,-6 -28,-7l-1 0 0 0 0 0 -1 0 -2 0 -48 0 0 0 -1 0 0 0 -312 0 0 0c-10,0 -19,-2 -27,-5 -8,-4 -16,-9 -22,-16l0 0c-7,-6 -12,-14 -16,-23l0 0c-3,-8 -5,-18 -5,-27 0,-10 2,-19 5,-28l0 0c4,-8 9,-16 16,-23l0 0c6,-6 14,-12 22,-15l0 0c8,-4 17,-6 27,-6l0 0 301 0c1,0 1,0 2,-1l0 0c1,0 1,-1 1,-2 0,-1 0,-1 -1,-2 -1,0 -1,-1 -2,-1l-300 0 0 0 -1 0 0 0 -1 0 0 0 0 0 0 0 0 0 -1 0c-9,1 -19,3 -28,7 -8,4 -17,9 -23,16l-2 2c-6,6 -12,14 -15,23l0 0c-4,9 -6,19 -6,30 0,10 2,20 6,29 4,10 9,18 17,25 6,7 14,13 23,17 9,3 18,6 28,6l1 0zm-1 14l0 0 0 0c-12,-1 -23,-3 -33,-8 -11,-4 -20,-11 -28,-19 -9,-8 -15,-18 -20,-29 -5,-11 -7,-23 -7,-35 0,-13 2,-24 7,-35l0 0c5,-11 11,-22 20,-30l5 -6 1 1c6,-6 14,-10 22,-14 10,-4 21,-7 33,-8l0 0 0 0 0 0 1 0 0 0 1 0 0 0 1 0 0 0 0 0 300 0c5,0 9,2 12,5 3,3 5,8 5,12 0,5 -2,9 -5,12l0 0c-3,3 -7,5 -12,5l-301 0 0 0c-7,0 -15,2 -21,5l0 0c-6,2 -12,6 -17,10l-1 2c-6,5 -10,12 -13,19l0 0c-3,6 -4,14 -4,22 0,7 1,15 4,22l0 0c3,7 7,13 13,18l0 0c5,6 11,10 18,13 6,2 14,4 21,4l0 0 312 0 1 0 0 0 0 0 41 0 0 0 7 0 1 0 0 0 1 0 0 0 1 0 0 0 1 0 0 0 0 0 0 0c12,1 23,3 33,8 11,4 20,11 28,19l0 0c9,8 15,18 20,30l0 0c4,10 7,22 7,35 0,12 -3,24 -7,34l0 0c-5,12 -11,22 -20,30l-5 6 -1 -1c-6,6 -14,11 -22,14 -10,5 -21,7 -33,8l0 0 0 0 0 0 -1 0 0 0 -1 0 0 0 -1 0 0 0 0 0 -327 0c-5,0 -9,-2 -12,-5l0 0c-3,-3 -5,-7 -5,-12 0,-5 2,-9 5,-12l0 0c3,-3 7,-5 12,-5l328 0 0 0c7,0 15,-2 21,-4l0 0c6,-3 12,-7 17,-11l1 -2c6,-5 10,-11 13,-18l0 0c3,-7 4,-15 4,-22 0,-8 -1,-16 -4,-22l0 0c-3,-8 -7,-14 -13,-19l0 0c-5,-5 -11,-10 -18,-13 -6,-2 -14,-4 -21,-4l0 0 -312 0 -1 0 0 0 0 0 -41 0 0 0 -7 0 -1 0 0 0 -1 0 0 0 -1 0 0 0 -1 0 0 0z"/>
   <path class="fil0" d="M55 334c-13,0 -24,6 -33,14l0 0c-8,9 -13,20 -13,33 0,13 5,24 13,33l0 0c9,8 20,13 33,13 13,0 25,-5 33,-13 8,-9 14,-20 14,-33 0,-13 -6,-25 -14,-33l0 0c-9,-8 -20,-14 -33,-14zm-19 28c5,-5 12,-8 19,-8 7,0 14,3 19,8l0 0c5,5 8,12 8,19 0,7 -3,14 -8,19 -5,5 -12,8 -19,8 -7,0 -14,-3 -19,-8l0 0c-5,-5 -8,-12 -8,-19 0,-7 3,-14 8,-19l0 0z"/>
   <path class="fil0" d="M476 169l45 -64c14,-20 23,-52 12,-77 -3,-5 -6,-10 -10,-13 -9,-9 -21,-14 -33,-14l-1 0 0 0 -13 -1 -12 1 -1 0 0 0c-13,0 -25,5 -34,14 -3,3 -7,8 -9,13 -11,25 -2,57 12,77l44 64z"/>
   <path class="fil1" d="M476 20c-10,0 -20,5 -27,12l0 0c-8,7 -12,17 -12,28 0,10 4,20 12,27l0 0c7,8 16,12 27,12 11,0 21,-4 28,-12 7,-7 12,-17 12,-27 0,-11 -5,-21 -12,-28l0 0c-7,-7 -17,-12 -28,-12zm-16 24c4,-5 10,-7 16,-7 7,0 12,2 16,7l0 0c5,4 7,9 7,16 0,6 -2,12 -7,16 -4,4 -9,6 -16,6 -6,0 -12,-2 -16,-6l0 0c-4,-4 -6,-10 -6,-16 0,-7 2,-12 6,-16l0 0z"/>
  </g>
 </g>
</svg>
