<?xml version="1.0" encoding="UTF-8"?>
<!DOCTYPE svg PUBLIC "-//W3C//DTD SVG 1.1//EN" "http://www.w3.org/Graphics/SVG/1.1/DTD/svg11.dtd">
<!-- Creator: CorelDRAW X7 -->
<svg xmlns="http://www.w3.org/2000/svg" xml:space="preserve" width="19.4816mm" height="19.4817mm" version="1.1" style="shape-rendering:geometricPrecision; text-rendering:geometricPrecision; image-rendering:optimizeQuality; fill-rule:evenodd; clip-rule:evenodd"
viewBox="0 0 113 113"
 xmlns:xlink="http://www.w3.org/1999/xlink">
 <defs>
  <style type="text/css">
   <![CDATA[
    .fil0 {fill:#606062;fill-rule:nonzero}
   ]]>
  </style>
 </defs>
 <g id="Layer_x0020_1">
  <metadata id="CorelCorpID_0Corel-Layer"/>
  <path class="fil0" d="M35 95l43 0 0 4 -43 0 0 -4zm-23 -95l16 0c18,0 37,0 56,0 1,0 1,0 2,1l26 26 1 1 0 1 0 72c0,4 -1,6 -3,9 -3,2 -5,3 -9,3l-10 0 -69 0 -10 0c-3,0 -6,-1 -9,-3 -2,-3 -3,-5 -3,-9l0 -89c0,-3 1,-6 3,-9 3,-2 6,-3 9,-3zm23 68l43 0 0 4 -43 0 0 -4zm38 -63l0 18c0,2 -1,3 -2,3l-8 0c-1,0 -2,-1 -2,-3l0 -18 -28 0 0 24c0,1 0,1 0,2l0 0c1,0 1,0 1,0l45 0c0,0 1,0 1,0 0,-1 0,-1 0,-2l0 -24 -7 0zm-7 0l0 16 2 0 0 -16 -2 0zm-31 72l43 0 0 4 -43 0 0 -4zm0 9l43 0 0 4 -43 0 0 -4zm50 -78l0 21c0,2 0,4 -2,5 -1,1 -2,2 -4,2l-45 0c-1,0 -3,-1 -4,-2l0 0c-2,-1 -2,-3 -2,-5l0 -24 -16 0c-2,0 -4,1 -5,2 -1,1 -2,3 -2,5l0 89c0,2 1,4 2,5 1,1 3,2 5,2l10 0 0 -47c0,-2 1,-4 2,-5l0 0c1,-2 3,-2 5,-2l55 0c2,0 4,0 5,2l0 0c1,1 2,3 2,5l0 47 10 0c2,0 4,-1 5,-2 1,-1 2,-3 2,-5l0 -71 -23 -22zm1 100l0 -47c0,-1 0,-1 -1,-2l0 0c0,0 -1,0 -1,0l-55 0c0,0 -1,0 -1,0l0 0c-1,1 -1,1 -1,2l0 47 59 0z"/>
 </g>
</svg>
