<?xml version="1.0" encoding="UTF-8"?>
<!DOCTYPE svg PUBLIC "-//W3C//DTD SVG 1.1//EN" "http://www.w3.org/Graphics/SVG/1.1/DTD/svg11.dtd">
<!-- Creator: CorelDRAW X7 -->
<svg xmlns="http://www.w3.org/2000/svg" xml:space="preserve" width="18.0087mm" height="18.0087mm" version="1.1" style="shape-rendering:geometricPrecision; text-rendering:geometricPrecision; image-rendering:optimizeQuality; fill-rule:evenodd; clip-rule:evenodd"
viewBox="0 0 1500 1500"
 xmlns:xlink="http://www.w3.org/1999/xlink">
 <defs>
  <style type="text/css">
   <![CDATA[
    .fil0 {fill:#727376;fill-rule:nonzero}
   ]]>
  </style>
 </defs>
 <g id="Layer_x0020_1">
  <metadata id="CorelCorpID_0Corel-Layer"/>
  <path class="fil0" d="M32 782c-18,0 -32,-14 -32,-32 0,-18 14,-33 32,-33l685 0 0 -685c0,-18 15,-32 33,-32 18,0 32,14 32,32l0 685 685 0c18,0 33,15 33,33 0,18 -15,32 -33,32l-685 0 0 685c0,18 -14,33 -32,33 -18,0 -33,-15 -33,-33l0 -685 -685 0z"/>
 </g>
</svg>
