<?xml version="1.0" encoding="UTF-8"?>
<!DOCTYPE svg PUBLIC "-//W3C//DTD SVG 1.1//EN" "http://www.w3.org/Graphics/SVG/1.1/DTD/svg11.dtd">
<!-- Creator: CorelDRAW X7 -->
<svg xmlns="http://www.w3.org/2000/svg" xml:space="preserve" width="21.8979mm" height="21.2423mm" version="1.1" style="shape-rendering:geometricPrecision; text-rendering:geometricPrecision; image-rendering:optimizeQuality; fill-rule:evenodd; clip-rule:evenodd"
viewBox="0 0 2024 1964"
 xmlns:xlink="http://www.w3.org/1999/xlink">
 <defs>
  <style type="text/css">
   <![CDATA[
    .fil0 {fill:#606062;fill-rule:nonzero}
   ]]>
  </style>
 </defs>
 <g id="Layer_x0020_1">
  <metadata id="CorelCorpID_0Corel-Layer"/>
  <g id="_1715735668048">
   <g>
    <path class="fil0" d="M165 513l1694 0c45,0 86,18 116,48l1 0c29,30 48,72 48,117l0 665c0,46 -19,87 -48,117l-1 0c-30,30 -71,48 -116,48l-232 0 -40 0 0 -40 0 -445 -1150 0 0 445 0 40 -40 0 -232 0c-45,0 -87,-18 -116,-48 -30,-30 -49,-71 -49,-117l0 -665c0,-45 19,-87 49,-117l0 0c29,-30 71,-48 116,-48zm1694 80l-1694 0c-23,0 -44,10 -59,25l0 0c-16,15 -25,37 -25,60l0 665c0,23 9,45 25,60 15,15 36,25 59,25l192 0 0 -445 0 -40 40 0 1230 0 41 0 0 40 0 445 191 0c23,0 44,-10 60,-25l0 0c15,-15 24,-37 24,-60l0 -665c0,-23 -9,-44 -24,-60l0 0c-16,-15 -37,-25 -60,-25z"/>
    <path class="fil0" d="M397 943l1230 0 41 0 0 40 0 940 0 41 -41 0 -1230 0 -40 0 0 -41 0 -940 0 -40 40 0zm1190 80l-1150 0 0 860 1150 0 0 -860z"/>
    <path class="fil0" d="M437 513l1150 0 0 -432 -1150 0 0 432zm1190 80l-1230 0 -40 0 0 -40 0 -513 0 -40 40 0 1230 0 41 0 0 40 0 513 0 40 -41 0z"/>
    <g>
     <path class="fil0" d="M177 662l436 0 29 0 0 29 0 103 0 28 -29 0 -436 0 -29 0 0 -28 0 -103 0 -29 29 0zm407 57l-378 0 0 46 378 0 0 -46z"/>
     <path class="fil0" d="M1766 641c30,0 58,13 78,33 20,20 32,47 32,78 0,30 -12,58 -32,78l0 0c-20,20 -48,32 -78,32 -31,0 -58,-12 -78,-32l0 0 0 0c-20,-20 -33,-48 -33,-78 0,-31 13,-58 33,-78l0 0c20,-20 47,-33 78,-33zm37 73c-9,-9 -23,-15 -37,-15 -15,0 -28,6 -38,15l0 0c-9,10 -15,23 -15,38 0,14 6,27 15,37l0 0c10,9 23,15 38,15 14,0 28,-6 37,-15l0 0c10,-10 15,-23 15,-37 0,-15 -5,-28 -15,-38z"/>
    </g>
   </g>
   <g>
    <polygon class="fil0" points="660,1633 1364,1633 1364,1695 660,1695 "/>
    <path class="fil0" d="M660 1195l704 0 0 61 -704 0 0 -61zm0 148l704 0 0 62 -704 0 0 -62zm0 148l704 0 0 62 -704 0 0 -62z"/>
   </g>
  </g>
 </g>
</svg>
